<svg width="138" height="56" viewBox="0 0 138 56" fill="none" xmlns="http://www.w3.org/2000/svg">
<path d="M96 47H138V50H96V47Z" fill="#EFAB23"/>
<path d="M46.3132 36.921C44.2034 36.921 42.4133 36.2816 40.9429 35.003C39.5044 33.7243 38.7852 31.7584 38.7852 29.1052C38.7852 26.516 39.6642 24.598 41.4224 23.3513C43.2125 22.1046 45.9136 21.4174 49.5258 21.2895L53.4576 21.1456V18.5084C53.4576 16.9101 53.2818 15.5995 52.9302 14.5766C52.6105 13.5537 51.7954 13.0422 50.4848 13.0422C49.2701 13.0422 48.423 13.5377 47.9435 14.5286C47.4959 15.5196 47.2722 16.7503 47.2722 18.2207C45.1304 18.2207 43.5162 17.981 42.4293 17.5015C41.3425 17.022 40.799 16.1909 40.799 15.0081C40.799 13.8254 41.2466 12.8824 42.1416 12.1791C43.0367 11.4759 44.2194 10.9644 45.6899 10.6447C47.1923 10.2931 48.8545 10.1173 50.6766 10.1173C54.033 10.1173 56.5424 10.7247 58.2046 11.9394C59.8988 13.1541 60.7459 15.2639 60.7459 18.2687V30.4958C60.7459 31.8064 60.9537 32.7014 61.3693 33.1809C61.7848 33.6604 62.536 33.9001 63.6229 33.9001H63.8147V36.4415H54.8961L53.8892 33.133H53.4576C52.7544 33.9961 52.0831 34.7153 51.4438 35.2907C50.8364 35.8341 50.1332 36.2337 49.334 36.4894C48.5348 36.7771 47.5279 36.921 46.3132 36.921ZM48.9504 33.4207C50.3249 33.4207 51.4118 32.8772 52.211 31.7904C53.0421 30.6716 53.4576 29.1692 53.4576 27.2831V23.687L51.2999 23.8308C49.3819 23.9267 48.0553 24.4382 47.3201 25.3652C46.5849 26.2602 46.2173 27.5708 46.2173 29.297C46.2173 32.0461 47.1283 33.4207 48.9504 33.4207Z" fill="#2B2D42"/>
<path d="M77.0311 36.4415L69.1674 15.5835C68.8477 14.6565 68.3842 14.0491 67.7769 13.7614C67.2015 13.4418 66.3863 13.282 65.3315 13.282V10.7406H80.1957V13.282H78.1819C77.127 13.282 76.5995 13.7934 76.5995 14.8163C76.5995 15.1999 76.6475 15.5835 76.7434 15.9671C76.8393 16.3507 76.9352 16.6704 77.0311 16.9261L80.2437 25.9885C80.5953 27.0114 80.931 28.0663 81.2506 29.1532C81.5703 30.24 81.81 31.183 81.9699 31.9822C82.1297 31.215 82.3375 30.3519 82.5932 29.3929C82.8489 28.402 83.0887 27.5868 83.3124 26.9475L86.573 17.3097C86.7328 16.8941 86.8607 16.4626 86.9566 16.0151C87.0525 15.5675 87.1004 15.12 87.1004 14.6725C87.1004 14.161 86.9246 13.8094 86.573 13.6176C86.2214 13.3938 85.7738 13.282 85.2304 13.282H83.8399V10.7406H94.3887V13.282H93.4297C92.7904 13.282 92.247 13.4897 91.7995 13.9053C91.3519 14.2889 90.8565 15.2479 90.313 16.7823L83.3604 36.4415H77.0311Z" fill="#2B2D42"/>
<path d="M109.083 36.921C104.991 36.921 101.89 35.7702 99.7804 33.4686C97.7026 31.167 96.6637 27.9225 96.6637 23.7349C96.6637 19.2277 97.6866 15.8393 99.7324 13.5697C101.81 11.2681 104.751 10.1173 108.555 10.1173C112.039 10.1173 114.773 11.0923 116.754 13.0422C118.768 14.9921 119.775 17.8691 119.775 21.6731V24.1185H104.048C104.144 27.3471 104.735 29.6966 105.822 31.167C106.941 32.6055 108.491 33.3248 110.473 33.3248C112.135 33.3248 113.542 32.9571 114.693 32.2219C115.843 31.4547 116.691 30.5277 117.234 29.4409C118.097 29.9204 118.529 30.7035 118.529 31.7904C118.529 33.1649 117.761 34.3637 116.227 35.3866C114.693 36.4095 112.311 36.921 109.083 36.921ZM104.144 21.0497H112.439C112.439 18.5883 112.151 16.6704 111.576 15.2958C111.001 13.9213 110.026 13.234 108.651 13.234C107.308 13.234 106.238 13.9053 105.438 15.2479C104.639 16.5905 104.208 18.5244 104.144 21.0497Z" fill="#2B2D42"/>
<path d="M122.618 36.4415V33.9001H123.194C123.673 33.9001 124.168 33.8362 124.68 33.7084C125.223 33.5485 125.671 33.2448 126.023 32.7973C126.406 32.3498 126.598 31.6785 126.598 30.7834V5.46622C126.598 4.6351 126.406 4.01176 126.023 3.5962C125.639 3.14867 125.175 2.86097 124.632 2.73311C124.121 2.60525 123.641 2.54131 123.194 2.54131H122.618V0H133.886V30.7834C133.886 31.6785 134.062 32.3498 134.414 32.7973C134.797 33.2448 135.245 33.5485 135.756 33.7084C136.3 33.8362 136.811 33.9001 137.291 33.9001H137.866V36.4415H122.618Z" fill="#2B2D42"/>
<path d="M18.5108 37.0001C14.3526 37.0001 10.8986 36.2288 8.14877 34.6862C5.43251 33.1436 3.38694 30.9975 2.01204 28.2477C0.67068 25.4644 0 22.2116 0 18.4893C0 14.8676 0.704215 11.6819 2.11264 8.93208C3.52107 6.14876 5.61695 3.98581 8.40027 2.44325C11.2171 0.867151 14.6711 0.0791016 18.7623 0.0791016C22.9205 0.0791016 26.0559 0.64918 28.1686 1.78934C30.2812 2.89596 31.3375 4.27085 31.3375 5.91402C31.3375 7.08771 30.7842 8.09373 29.6776 8.93208C28.571 9.77043 26.9614 10.1896 24.8487 10.1896C24.8487 8.14403 24.3457 6.4841 23.3397 5.20981C22.3337 3.93551 20.7576 3.29837 18.6114 3.29837C14.9562 3.29837 12.3405 4.62296 10.7644 7.27215C9.22186 9.8878 8.45057 13.6268 8.45057 18.4893C8.45057 23.3517 9.25539 27.0908 10.865 29.7064C12.5082 32.2885 15.3083 33.5796 19.2653 33.5796C19.9024 33.5796 20.5228 33.5628 21.1264 33.5293C21.7636 33.4622 22.3672 33.3616 22.9373 33.2275V25.8332C22.9373 24.4919 22.6355 23.5697 22.0319 23.0667C21.4282 22.5301 20.5396 22.2619 19.3659 22.2619H18.712V19.5959H34.5065V22.2619H33.8526C32.813 22.2619 32.0585 22.5301 31.5891 23.0667C31.1196 23.6032 30.8848 24.5925 30.8848 26.0344V34.2838C28.9063 35.1892 26.9111 35.8767 24.899 36.3461C22.9205 36.7821 20.7911 37.0001 18.5108 37.0001Z" fill="#2B2D42"/>
<path d="M5.95 51.125H2.6625L2.0375 53H0.04375L3.43125 43.9H5.16875L8.575 53H6.58125L5.95 51.125ZM3.16875 49.6062H5.44375L4.3 46.2L3.16875 49.6062ZM15.3938 50.6125C15.3938 50.2583 15.2688 49.9875 15.0188 49.8C14.7688 49.6083 14.3188 49.4083 13.6688 49.2C13.0188 48.9875 12.5042 48.7792 12.125 48.575C11.0917 48.0167 10.575 47.2646 10.575 46.3187C10.575 45.8271 10.7125 45.3896 10.9875 45.0062C11.2667 44.6187 11.6646 44.3167 12.1813 44.1C12.7021 43.8833 13.2854 43.775 13.9313 43.775C14.5813 43.775 15.1604 43.8937 15.6688 44.1312C16.1771 44.3646 16.5708 44.6958 16.85 45.125C17.1333 45.5542 17.275 46.0417 17.275 46.5875H15.4C15.4 46.1708 15.2688 45.8479 15.0063 45.6187C14.7438 45.3854 14.375 45.2687 13.9 45.2687C13.4417 45.2687 13.0854 45.3667 12.8313 45.5625C12.5771 45.7542 12.45 46.0083 12.45 46.325C12.45 46.6208 12.5979 46.8687 12.8938 47.0687C13.1938 47.2687 13.6333 47.4562 14.2125 47.6312C15.2792 47.9521 16.0563 48.35 16.5438 48.825C17.0313 49.3 17.275 49.8917 17.275 50.6C17.275 51.3875 16.9771 52.0062 16.3813 52.4562C15.7854 52.9021 14.9833 53.125 13.975 53.125C13.275 53.125 12.6375 52.9979 12.0625 52.7437C11.4875 52.4854 11.0479 52.1333 10.7438 51.6875C10.4438 51.2417 10.2938 50.725 10.2938 50.1375H12.175C12.175 51.1417 12.775 51.6437 13.975 51.6437C14.4208 51.6437 14.7688 51.5542 15.0188 51.375C15.2688 51.1917 15.3938 50.9375 15.3938 50.6125ZM24.5187 50.6125C24.5187 50.2583 24.3937 49.9875 24.1437 49.8C23.8937 49.6083 23.4437 49.4083 22.7937 49.2C22.1437 48.9875 21.6292 48.7792 21.25 48.575C20.2167 48.0167 19.7 47.2646 19.7 46.3187C19.7 45.8271 19.8375 45.3896 20.1125 45.0062C20.3917 44.6187 20.7896 44.3167 21.3062 44.1C21.8271 43.8833 22.4104 43.775 23.0562 43.775C23.7062 43.775 24.2854 43.8937 24.7937 44.1312C25.3021 44.3646 25.6958 44.6958 25.975 45.125C26.2583 45.5542 26.4 46.0417 26.4 46.5875H24.525C24.525 46.1708 24.3937 45.8479 24.1312 45.6187C23.8687 45.3854 23.5 45.2687 23.025 45.2687C22.5667 45.2687 22.2104 45.3667 21.9562 45.5625C21.7021 45.7542 21.575 46.0083 21.575 46.325C21.575 46.6208 21.7229 46.8687 22.0187 47.0687C22.3187 47.2687 22.7583 47.4562 23.3375 47.6312C24.4042 47.9521 25.1812 48.35 25.6687 48.825C26.1562 49.3 26.4 49.8917 26.4 50.6C26.4 51.3875 26.1021 52.0062 25.5062 52.4562C24.9104 52.9021 24.1083 53.125 23.1 53.125C22.4 53.125 21.7625 52.9979 21.1875 52.7437C20.6125 52.4854 20.1729 52.1333 19.8687 51.6875C19.5687 51.2417 19.4187 50.725 19.4187 50.1375H21.3C21.3 51.1417 21.9 51.6437 23.1 51.6437C23.5458 51.6437 23.8937 51.5542 24.1437 51.375C24.3937 51.1917 24.5187 50.9375 24.5187 50.6125ZM36.4 48.6562C36.4 49.5521 36.2417 50.3375 35.925 51.0125C35.6083 51.6875 35.1542 52.2083 34.5625 52.575C33.975 52.9417 33.3 53.125 32.5375 53.125C31.7833 53.125 31.1104 52.9437 30.5187 52.5812C29.9271 52.2187 29.4687 51.7021 29.1437 51.0312C28.8187 50.3562 28.6542 49.5812 28.65 48.7062V48.2562C28.65 47.3604 28.8104 46.5729 29.1312 45.8937C29.4562 45.2104 29.9125 44.6875 30.5 44.325C31.0917 43.9583 31.7667 43.775 32.525 43.775C33.2833 43.775 33.9562 43.9583 34.5437 44.325C35.1354 44.6875 35.5917 45.2104 35.9125 45.8937C36.2375 46.5729 36.4 47.3583 36.4 48.25V48.6562ZM34.5 48.2437C34.5 47.2896 34.3292 46.5646 33.9875 46.0687C33.6458 45.5729 33.1583 45.325 32.525 45.325C31.8958 45.325 31.4104 45.5708 31.0687 46.0625C30.7271 46.55 30.5542 47.2667 30.55 48.2125V48.6562C30.55 49.5854 30.7208 50.3062 31.0625 50.8187C31.4042 51.3312 31.8958 51.5875 32.5375 51.5875C33.1667 51.5875 33.65 51.3417 33.9875 50.85C34.325 50.3542 34.4958 49.6333 34.5 48.6875V48.2437ZM46.1563 49.9687C46.0854 50.9479 45.7229 51.7187 45.0688 52.2812C44.4188 52.8437 43.5604 53.125 42.4938 53.125C41.3271 53.125 40.4083 52.7333 39.7375 51.95C39.0708 51.1625 38.7375 50.0833 38.7375 48.7125V48.1562C38.7375 47.2812 38.8917 46.5104 39.2 45.8437C39.5083 45.1771 39.9479 44.6667 40.5188 44.3125C41.0938 43.9542 41.7604 43.775 42.5188 43.775C43.5688 43.775 44.4146 44.0562 45.0563 44.6187C45.6979 45.1812 46.0688 45.9708 46.1688 46.9875H44.2938C44.2479 46.4 44.0833 45.975 43.8 45.7125C43.5208 45.4458 43.0938 45.3125 42.5188 45.3125C41.8938 45.3125 41.425 45.5375 41.1125 45.9875C40.8042 46.4333 40.6458 47.1271 40.6375 48.0687V48.7562C40.6375 49.7396 40.7854 50.4583 41.0813 50.9125C41.3813 51.3667 41.8521 51.5937 42.4938 51.5937C43.0729 51.5937 43.5042 51.4625 43.7875 51.2C44.075 50.9333 44.2396 50.5229 44.2813 49.9687H46.1563ZM50.6313 53H48.7563V43.9H50.6313V53ZM58.875 51.125H55.5875L54.9625 53H52.9687L56.3562 43.9H58.0937L61.5 53H59.5062L58.875 51.125ZM56.0937 49.6062H58.3687L57.225 46.2L56.0937 49.6062ZM69.7 45.4187H66.9125V53H65.0375V45.4187H62.2875V43.9H69.7V45.4187ZM77.5 49.0562H73.9V51.4937H78.125V53H72.025V43.9H78.1125V45.4187H73.9V47.5875H77.5V49.0562ZM85.1937 50.6125C85.1937 50.2583 85.0687 49.9875 84.8187 49.8C84.5687 49.6083 84.1187 49.4083 83.4687 49.2C82.8187 48.9875 82.3042 48.7792 81.925 48.575C80.8917 48.0167 80.375 47.2646 80.375 46.3187C80.375 45.8271 80.5125 45.3896 80.7875 45.0062C81.0667 44.6187 81.4646 44.3167 81.9812 44.1C82.5021 43.8833 83.0854 43.775 83.7312 43.775C84.3812 43.775 84.9604 43.8937 85.4687 44.1312C85.9771 44.3646 86.3708 44.6958 86.65 45.125C86.9333 45.5542 87.075 46.0417 87.075 46.5875H85.2C85.2 46.1708 85.0687 45.8479 84.8062 45.6187C84.5437 45.3854 84.175 45.2687 83.7 45.2687C83.2417 45.2687 82.8854 45.3667 82.6312 45.5625C82.3771 45.7542 82.25 46.0083 82.25 46.325C82.25 46.6208 82.3979 46.8687 82.6937 47.0687C82.9937 47.2687 83.4333 47.4562 84.0125 47.6312C85.0792 47.9521 85.8562 48.35 86.3437 48.825C86.8312 49.3 87.075 49.8917 87.075 50.6C87.075 51.3875 86.7771 52.0062 86.1812 52.4562C85.5854 52.9021 84.7833 53.125 83.775 53.125C83.075 53.125 82.4375 52.9979 81.8625 52.7437C81.2875 52.4854 80.8479 52.1333 80.5437 51.6875C80.2437 51.2417 80.0937 50.725 80.0937 50.1375H81.975C81.975 51.1417 82.575 51.6437 83.775 51.6437C84.2208 51.6437 84.5687 51.5542 84.8187 51.375C85.0687 51.1917 85.1937 50.9375 85.1937 50.6125Z" fill="#EFAB23"/>
</svg>
