<svg width="64" height="64" viewBox="0 0 64 64" fill="none" xmlns="http://www.w3.org/2000/svg">
<path d="M33.004 58H30.996C28.793 58 27 56.207 27 54.004V52.843C27 51.99 26.429 51.224 25.578 50.934C24.759 50.656 23.946 50.318 23.163 49.931C22.355 49.533 21.403 49.669 20.799 50.272L19.978 51.095C18.419 52.654 15.884 52.654 14.326 51.095L12.906 49.675C11.347 48.117 11.347 45.581 12.906 44.024L13.729 43.201C14.333 42.597 14.469 41.647 14.07 40.837C13.683 40.055 13.345 39.242 13.067 38.423C12.776 37.571 12.01 37 11.157 37H9.996C7.793 37 6 35.207 6 33.004V30.996C6 28.793 7.793 27 9.996 27H11.157C12.01 27 12.776 26.429 13.066 25.578C13.344 24.759 13.682 23.946 14.069 23.163C14.469 22.353 14.332 21.403 13.728 20.799L12.905 19.978C11.346 18.419 11.346 15.883 12.905 14.326L14.325 12.906C15.883 11.348 18.417 11.346 19.976 12.906L20.8 13.73C21.404 14.334 22.355 14.471 23.163 14.071C23.936 13.689 24.749 13.353 25.575 13.073C26.428 12.783 27 12.017 27 11.163V11C27 8.243 29.243 6 32 6V8C30.346 8 29 9.346 29 11V11.163C29 12.873 27.883 14.402 26.219 14.967C25.475 15.219 24.744 15.521 24.048 15.864C22.469 16.641 20.595 16.352 19.386 15.143L18.562 14.319C17.784 13.539 16.518 13.541 15.74 14.319L14.32 15.739C13.542 16.517 13.542 17.784 14.32 18.562L15.143 19.383C16.354 20.594 16.643 22.469 15.863 24.048C15.514 24.754 15.211 25.485 14.96 26.222C14.394 27.884 12.866 29 11.157 29H9.996C8.896 29 8 29.896 8 30.996V33.004C8 34.104 8.896 35 9.996 35H11.157C12.866 35 14.393 36.116 14.959 37.777C15.21 38.514 15.514 39.245 15.862 39.95C16.641 41.529 16.352 43.404 15.142 44.615L14.319 45.438C13.541 46.215 13.541 47.482 14.319 48.26L15.739 49.68C16.519 50.458 17.784 50.456 18.562 49.68L19.383 48.857C20.595 47.646 22.471 47.357 24.048 48.137C24.754 48.486 25.485 48.789 26.222 49.04C27.884 49.606 29 51.134 29 52.843V54.004C29 55.104 29.896 56 30.996 56H33.004C34.104 56 35 55.104 35 54.004V52.843C35 51.134 36.116 49.607 37.777 49.041C38.514 48.79 39.245 48.486 39.95 48.138C41.529 47.356 43.404 47.645 44.615 48.858L45.438 49.681C46.216 50.461 47.482 50.459 48.26 49.681L49.68 48.261C50.458 47.483 50.458 46.216 49.68 45.438L48.804 44.563C47.618 43.376 47.339 41.548 48.108 40.012C48.469 39.29 48.785 38.539 49.045 37.778C49.611 36.116 51.141 35 52.849 35H53.001C54.654 35 56 33.654 56 32H58C58 34.757 55.758 37 53.001 37H52.849C51.996 37 51.229 37.572 50.938 38.424C50.649 39.27 50.299 40.106 49.898 40.907C49.515 41.672 49.644 42.572 50.219 43.148L51.095 44.023C52.654 45.581 52.654 48.117 51.095 49.674L49.675 51.094C48.117 52.652 45.583 52.654 44.024 51.094L43.2 50.271C42.598 49.667 41.649 49.533 40.836 49.93C40.054 50.317 39.241 50.655 38.422 50.933C37.571 51.224 37 51.99 37 52.843V54.004C37 56.207 35.207 58 33.004 58Z" fill="#2B2D42"/>
<path d="M32 27C30.6739 27 29.4021 27.5268 28.4645 28.4645C27.5268 29.4021 27 30.6739 27 32C27 33.3261 27.5268 34.5979 28.4645 35.5355C29.4021 36.4732 30.6739 37 32 37C33.3261 37 34.5979 36.4732 35.5355 35.5355C36.4732 34.5979 37 33.3261 37 32C37 30.6739 36.4732 29.4021 35.5355 28.4645C34.5979 27.5268 33.3261 27 32 27Z" fill="#EFAB23"/>
<path d="M32 48C23.178 48 16 40.822 16 32C16 23.178 23.178 16 32 16V18C24.28 18 18 24.28 18 32C18 39.72 24.28 46 32 46C39.72 46 46 39.72 46 32H48C48 40.822 40.822 48 32 48Z" fill="#2B2D42"/>
<path d="M32 43C25.935 43 21 38.065 21 32C21 25.935 25.935 21 32 21V23C27.037 23 23 27.037 23 32C23 36.963 27.037 41 32 41C36.963 41 41 36.963 41 32H43C43 38.065 38.065 43 32 43Z" fill="#2B2D42"/>
<path d="M46 30C44.346 30 43 28.654 43 27V26.476C42.689 26.368 42.426 26.257 42.168 26.136L41.757 26.486C40.627 27.618 38.649 27.62 37.515 26.486C36.949 25.92 36.636 25.166 36.636 24.365C36.636 23.563 36.949 22.809 37.515 22.243L37.885 21.874C37.743 21.575 37.633 21.311 37.537 21.041L37 21C35.346 21 34 19.654 34 18C34 16.346 35.346 15 37 15H37.524C37.632 14.689 37.743 14.426 37.864 14.168L37.514 13.757C36.948 13.192 36.635 12.438 36.635 11.636C36.635 10.835 36.948 10.081 37.514 9.515C38.648 8.381 40.625 8.383 41.757 9.515L42.126 9.885C42.425 9.743 42.689 9.633 42.959 9.537L43 9C43 7.346 44.346 6 46 6C47.654 6 49 7.346 49 9V9.524C49.311 9.632 49.574 9.743 49.832 9.864L50.243 9.514C51.373 8.382 53.352 8.38 54.485 9.514C55.051 10.08 55.364 10.834 55.364 11.635C55.364 12.437 55.051 13.191 54.485 13.757L54.115 14.126C54.257 14.425 54.367 14.689 54.463 14.959L55 15C56.654 15 58 16.346 58 18C58 19.654 56.654 21 55 21H54.476C54.368 21.311 54.257 21.574 54.136 21.832L54.486 22.243C55.052 22.808 55.365 23.562 55.365 24.364C55.365 25.165 55.052 25.919 54.486 26.485C53.353 27.619 51.375 27.617 50.243 26.485L49.874 26.115C49.575 26.257 49.311 26.367 49.041 26.463L49 27C49 28.654 47.654 30 46 30ZM42.115 24.121C42.418 24.121 42.726 24.188 43.02 24.326C43.218 24.421 43.421 24.504 43.629 24.578C44.463 24.879 44.999 25.623 44.999 26.475V27C44.999 27.552 45.447 28 45.999 28C46.551 28 46.999 27.552 46.999 27V26.476C46.999 25.623 47.535 24.879 48.365 24.58C48.577 24.504 48.78 24.421 48.977 24.327C49.776 23.951 50.683 24.098 51.286 24.701L51.656 25.071C52.034 25.451 52.691 25.449 53.07 25.071C53.258 24.882 53.363 24.631 53.363 24.364C53.363 24.096 53.259 23.846 53.07 23.658L52.7 23.287C52.096 22.683 51.95 21.778 52.325 20.979C52.42 20.781 52.503 20.578 52.577 20.37C52.878 19.536 53.622 19 54.474 19H55C55.552 19 56 18.552 56 18C56 17.448 55.552 17 55 17H54.476C53.623 17 52.879 16.464 52.58 15.634C52.504 15.422 52.421 15.219 52.327 15.022C51.951 14.222 52.098 13.317 52.701 12.713L53.071 12.343C53.26 12.154 53.364 11.904 53.364 11.636C53.364 11.369 53.26 11.118 53.071 10.929C52.691 10.551 52.034 10.551 51.658 10.929L51.287 11.299C50.684 11.903 49.778 12.049 48.979 11.674C48.781 11.579 48.578 11.496 48.37 11.422C47.536 11.121 47 10.377 47 9.524V9C47 8.448 46.552 8 46 8C45.448 8 45 8.448 45 9V9.524C45 10.377 44.464 11.121 43.634 11.42C43.422 11.496 43.219 11.579 43.022 11.673C42.224 12.05 41.316 11.902 40.713 11.299L40.343 10.929C39.965 10.551 39.309 10.553 38.929 10.929C38.741 11.118 38.636 11.369 38.636 11.636C38.636 11.904 38.74 12.154 38.929 12.342L39.299 12.713C39.903 13.317 40.049 14.222 39.674 15.021C39.579 15.219 39.496 15.422 39.422 15.63C39.121 16.464 38.377 17 37.524 17H37C36.448 17 36 17.448 36 18C36 18.552 36.448 19 37 19H37.524C38.377 19 39.121 19.536 39.42 20.366C39.496 20.578 39.579 20.781 39.673 20.978C40.049 21.778 39.902 22.683 39.299 23.287L38.929 23.657C38.74 23.846 38.636 24.096 38.636 24.364C38.636 24.631 38.74 24.882 38.929 25.071C39.309 25.448 39.966 25.45 40.342 25.071L40.713 24.701C41.094 24.32 41.596 24.121 42.115 24.121Z" fill="#EFAB23"/>
<path d="M46 22C43.794 22 42 20.206 42 18C42 15.794 43.794 14 46 14C48.206 14 50 15.794 50 18C50 20.206 48.206 22 46 22ZM46 16C44.897 16 44 16.897 44 18C44 19.103 44.897 20 46 20C47.103 20 48 19.103 48 18C48 16.897 47.103 16 46 16Z" fill="#EFAB23"/>
</svg>
