<svg width="64" height="64" viewBox="0 0 64 64" fill="none" xmlns="http://www.w3.org/2000/svg">
<path d="M32 55.995C30.779 55.995 29.56 55.551 28.608 54.664L6.963 34.457C6.352 33.887 6 33.078 6 32.239V31.093C6 29.391 7.346 28 9 28H15.002C16.655 28 18 26.66 18 25.007V11.005C18 9.351 19.346 8 21 8H43C44.654 8 46 9.351 46 11.005V25.066C46 26.687 47.318 28 48.939 28H55C56.654 28 58 29.391 58 31.094V32.24C58 33.078 57.649 33.886 57.037 34.458L35.392 54.664C34.44 55.551 33.221 55.995 32 55.995ZM9 30C8.468 30 8 30.514 8 31.094V32.24C8 32.526 8.119 32.801 8.327 32.995L29.973 53.202C31.11 54.263 32.889 54.265 34.026 53.202L55.672 32.995C55.881 32.8 56 32.524 56 32.239V31.093C56 30.514 55.532 30 55 30H48.939C46.216 30 44 27.789 44 25.065V11.005C44 10.453 43.552 10 43 10H21C20.448 10 20 10.453 20 11.005V25.007C20 27.763 17.758 30 15.002 30H9Z" fill="#2B2D42"/>
<path d="M29 23H38V21H33V19H31V21H29C27.346 21 26 22.351 26 24.005V28.005C26 29.659 27.346 31 29 31H35C35.552 31 36 31.453 36 32.005V36.005C36 36.557 35.552 37 35 37H26V39H31V41H33V39H35C36.654 39 38 37.659 38 36.005V32.005C38 30.351 36.654 29 35 29H29C28.448 29 28 28.557 28 28.005V24.005C28 23.453 28.448 23 29 23Z" fill="#EFAB23"/>
<path d="M54 26H50C48.897 26 48 25.107 48 24.005V13H50V24H54V26Z" fill="#EFAB23"/>
<path d="M14 26H10V24H14V13H16V24.005C16 25.107 15.103 26 14 26Z" fill="#EFAB23"/>
</svg>
