<svg width="64" height="64" viewBox="0 0 64 64" fill="none" xmlns="http://www.w3.org/2000/svg">
<path d="M35 34H33V26H35V24H29V26H31V34H29V36H35V34Z" fill="#EFAB23"/>
<path d="M57.3721 44.855L50.1941 38.257C51.3431 35.736 52.0001 32.946 52.0001 30C52.0001 18.972 43.0281 10 32.0001 10C20.9721 10 12.0001 18.972 12.0001 30C12.0001 33.117 12.7371 36.058 14.0151 38.69L6.62309 45.55C6.03109 46.095 5.84209 46.942 6.14209 47.708C6.44709 48.493 7.18509 49 8.02009 49H14.9971C15.1641 49 16.0001 49.03 16.0001 49.636V56.06C16.0001 56.827 16.4511 57.5 17.1791 57.82C17.4531 57.941 17.7441 57.999 18.0311 57.999C18.5411 57.999 19.0421 57.813 19.4271 57.458L27.9801 49.592C29.2791 49.858 30.6241 49.998 32.0011 49.998C33.3721 49.998 34.7111 49.858 36.0051 49.594L44.4701 57.442C44.8581 57.809 45.3711 58 45.8971 58C46.1951 58 46.4971 57.939 46.7841 57.814C47.5341 57.489 48.0001 56.806 48.0001 56.031V49.406C48.0001 48.805 48.4371 48 48.8861 48H55.9651C56.8471 48 57.6001 47.536 57.8841 46.817C58.1471 46.15 57.9541 45.4 57.3721 44.855ZM16.0511 31C16.5511 39 23.0001 45.449 31.0001 45.949V47.949C22.0001 47.443 14.5561 40 14.0511 31H16.0511ZM32.0001 16C39.7201 16 46.0001 22.28 46.0001 30C46.0001 37.72 39.7201 44 32.0001 44C24.2801 44 18.0001 37.72 18.0001 30C18.0001 22.28 24.2811 16 32.0001 16ZM33.0001 45.949C41.0001 45.449 47.4501 39 47.9491 31H49.9491C49.4441 40 42.0001 47.443 33.0001 47.949V45.949ZM49.9491 29H47.9491C47.4501 21 41.0001 14.55 33.0001 14.051V12.051C42.0001 12.556 49.4441 20 49.9491 29ZM31.0001 12.051V14.051C23.0001 14.55 16.5511 21 16.0511 29H14.0511C14.5561 20 22.0001 12.556 31.0001 12.051ZM18.0721 55.987C18.0511 56.006 18.0001 55.999 18.0001 56.021V49.636C18.0001 48.108 16.7381 46.999 14.9971 46.999L7.98109 47.018L15.0091 40.496C17.4561 44.442 21.2241 47.477 25.7051 48.968L18.0721 55.987ZM48.8861 46C47.1591 46 46.0001 47.761 46.0001 49.406L46.0251 55.957C45.9901 55.992 45.8711 56.015 45.8321 55.98L38.2761 48.975C42.9171 47.436 46.7971 44.241 49.2361 40.093L55.6591 46H48.8861Z" fill="#2B2D42"/>
<path d="M9.49298 38.349C8.50198 35.681 8.00098 32.872 8.00098 30C8.00098 16.766 18.767 6 32.001 6C45.235 6 56.001 16.766 56.001 30C56.001 32.872 55.499 35.681 54.509 38.348L52.634 37.652C53.54 35.207 54 32.633 54 30C54 17.869 44.131 8 32 8C19.869 8 9.99998 17.869 9.99998 30C9.99998 32.634 10.46 35.209 11.367 37.654L9.49298 38.349Z" fill="#EFAB23"/>
</svg>
