<svg width="152" height="50" viewBox="0 0 152 50" fill="none" xmlns="http://www.w3.org/2000/svg">
<path d="M2.86865 41.4959C2.86865 40.1639 3.79078 39.3442 5.02029 39.3442C6.2498 39.3442 7.17193 40.1639 7.17193 41.4959C7.17193 42.8278 6.2498 43.75 5.02029 43.75C3.79078 43.75 2.86865 42.8278 2.86865 41.4959Z" fill="#2B2D42"/>
<path d="M25.2049 42.9303C25.2049 44.3648 24.0779 45.1844 21.8238 45.1844H17.5205V36.8853H21.6189C23.668 36.8853 24.7951 37.8074 24.7951 39.0369C24.7951 39.8566 24.3853 40.4713 23.668 40.8812C24.6926 41.1885 25.2049 41.9057 25.2049 42.9303ZM19.4672 38.3197V40.2664H21.4139C22.3361 40.2664 22.8484 39.959 22.8484 39.2418C22.8484 38.5246 22.3361 38.2172 21.4139 38.2172H19.4672V38.3197ZM23.2582 42.7254C23.2582 42.0082 22.7459 41.7008 21.7213 41.7008H19.4672V43.75H21.7213C22.7459 43.75 23.2582 43.4426 23.2582 42.7254Z" fill="#2B2D42"/>
<path d="M34.426 43.4425H30.5326L29.8154 45.1843H27.8687L31.5572 36.7827H33.5039L37.1924 45.1843H35.1432L34.426 43.4425ZM33.8113 42.0081L32.4793 38.8319L31.1473 42.0081H33.8113Z" fill="#2B2D42"/>
<path d="M45.594 45.1844L43.9546 42.9303H43.8522H42.2128V45.2869H40.2661V36.8853H43.8522C46.1063 36.8853 47.4382 38.0123 47.4382 39.959C47.4382 41.1885 46.8235 42.1107 45.6964 42.623L47.5407 45.2869H45.594V45.1844ZM43.7497 38.4221H42.2128V41.291H43.7497C44.9792 41.291 45.4915 40.7787 45.4915 39.8566C45.594 39.0369 44.9792 38.4221 43.7497 38.4221Z" fill="#2B2D42"/>
<path d="M58.9139 42.9303C58.9139 44.3648 57.7869 45.1844 55.5328 45.1844H51.2295V36.8853H55.3279C57.377 36.8853 58.5041 37.8074 58.5041 39.0369C58.5041 39.8566 58.0942 40.4713 57.377 40.8812C58.2992 41.1885 58.9139 41.9057 58.9139 42.9303ZM53.1762 38.3197V40.2664H55.1229C56.0451 40.2664 56.5574 39.959 56.5574 39.2418C56.5574 38.5246 56.0451 38.2172 55.1229 38.2172H53.1762V38.3197ZM56.9672 42.7254C56.9672 42.0082 56.4549 41.7008 55.4303 41.7008H53.1762V43.75H55.4303C56.4549 43.75 56.9672 43.4426 56.9672 42.7254Z" fill="#2B2D42"/>
<path d="M69.057 43.6475V45.1844H62.6021V36.8853H68.9545V38.4221H64.5488V40.2664H68.4422V41.8033H64.5488V43.75H69.057V43.6475Z" fill="#2B2D42"/>
<path d="M78.176 45.1844L76.5367 42.8279H76.4342H74.7949V45.1844H72.8481V36.8853H76.4342C78.6883 36.8853 80.0203 38.0123 80.0203 39.959C80.0203 41.1885 79.4055 42.1107 78.2785 42.623L80.1227 45.2869H78.176V45.1844ZM76.3318 38.4221H74.7949V41.291H76.3318C77.5613 41.291 78.0736 40.7787 78.0736 39.8566C78.0736 39.0369 77.4588 38.4221 76.3318 38.4221Z" fill="#2B2D42"/>
<path d="M105.43 44.3647L106.045 42.9303C106.762 43.4426 107.787 43.8524 108.811 43.8524C109.938 43.8524 110.451 43.4426 110.451 42.9303C110.451 41.3934 105.635 42.418 105.635 39.3442C105.635 37.9098 106.762 36.7827 109.119 36.7827C110.143 36.7827 111.27 36.9876 111.988 37.4999L111.373 38.9344C110.553 38.5245 109.836 38.3196 109.016 38.3196C107.889 38.3196 107.377 38.7294 107.377 39.2417C107.377 40.7786 112.192 39.754 112.192 42.8278C112.192 44.2622 111.065 45.3893 108.606 45.3893C107.582 45.3893 106.25 44.9794 105.43 44.3647Z" fill="#2B2D42"/>
<path d="M123.668 36.8853V45.2869H121.721V41.9057H117.93V45.2869H115.983V36.8853H117.93V40.1639H121.721V36.8853H123.668Z" fill="#2B2D42"/>
<path d="M127.254 41.086C127.254 38.627 129.201 36.7827 131.865 36.7827C134.528 36.7827 136.475 38.627 136.475 41.086C136.475 43.545 134.528 45.3893 131.865 45.3893C129.201 45.3893 127.254 43.545 127.254 41.086ZM134.528 41.086C134.528 39.4466 133.401 38.4221 131.865 38.4221C130.328 38.4221 129.201 39.5491 129.201 41.086C129.201 42.7253 130.328 43.7499 131.865 43.7499C133.401 43.7499 134.528 42.6229 134.528 41.086Z" fill="#2B2D42"/>
<path d="M147.336 39.8566C147.336 41.7008 145.901 42.8279 143.75 42.8279H142.11V45.1844H140.164V36.8853H143.75C145.901 36.8853 147.336 38.0123 147.336 39.8566ZM145.389 39.8566C145.389 38.9344 144.774 38.4221 143.647 38.4221H142.11V41.291H143.647C144.774 41.3935 145.389 40.7787 145.389 39.8566Z" fill="#2B2D42"/>
<path d="M7.68443 24.8974C7.68443 22.131 7.88934 19.8769 8.29918 18.34C8.70902 16.7007 9.22131 15.5736 9.93853 14.9589C10.6557 14.3441 11.4754 14.0367 12.5 14.0367C13.3197 14.0367 14.0369 14.3441 14.4467 14.9589C14.959 15.5736 15.2664 16.2908 15.4713 17.3154C15.6762 18.2376 15.7787 19.3646 15.7787 20.4917C17.5205 20.4917 18.8525 20.2867 19.8771 19.8769C20.7992 19.4671 21.5164 18.9548 21.8238 18.34C22.1311 17.7253 22.3361 17.0081 22.3361 16.2908C22.3361 14.8564 21.5164 13.6269 19.7746 12.6023C18.0328 11.5777 15.5738 11.0654 12.2951 11.0654C9.93853 11.0654 7.88935 11.4753 6.04508 12.3974C4.20082 13.2171 2.66393 14.6515 1.63934 16.7007C0.512295 18.7499 0 21.5163 0 25.1023C0 26.7417 0.102459 28.1761 0.409836 29.5081H8.09426C7.78689 28.0736 7.68443 26.6392 7.68443 24.8974Z" fill="#2B2D42"/>
<path d="M36.9875 23.5653C36.9875 23.0531 36.9875 22.2334 37.09 21.4137C37.1925 20.594 37.3974 19.6719 37.6023 18.7498C37.9097 17.8276 38.3195 17.1104 38.8318 16.5981C39.3441 15.9834 40.0613 15.676 40.9834 15.676C41.9056 15.676 42.6228 15.9834 42.9302 16.7006C43.2375 17.4178 43.4425 18.4424 43.4425 19.7744C45.4916 19.7744 47.0285 19.3645 48.1556 18.5449C49.2826 17.7252 49.8974 16.4957 49.8974 14.9588C49.8974 12.2949 47.9506 10.9629 44.0572 10.9629C42.008 10.9629 40.4711 11.3727 39.4466 12.0899C38.422 12.8072 37.6023 13.9342 36.8851 15.4711H36.6802L35.6556 11.5776H25.4097V14.2416H25.5121C26.6392 14.2416 27.5613 14.4465 28.1761 14.8563C28.7908 15.2662 29.2007 16.1883 29.2007 17.6227V29.4055H36.8851V23.5653H36.9875Z" fill="#2B2D42"/>
<path d="M60.8605 24.6924C60.8605 21.2088 61.2704 18.5449 61.9876 16.7006C62.8073 14.9588 64.1392 14.0367 66.0859 14.0367C68.0327 14.0367 69.4671 14.9588 70.1843 16.7006C71.004 18.4424 71.4138 21.1063 71.4138 24.6924C71.4138 26.4342 71.3114 27.9711 71.1064 29.3031H78.7909C79.0982 27.8686 79.2007 26.3317 79.2007 24.6924C79.2007 20.0817 78.0737 16.5981 75.7171 14.344C73.3605 12.0899 70.1843 10.9629 66.1884 10.9629C61.8851 10.9629 58.504 12.0899 56.3523 14.344C54.2007 16.5981 52.9712 20.0817 52.9712 24.6924C52.9712 26.4342 53.1761 27.9711 53.4835 29.3031H61.1679C60.963 28.0735 60.8605 26.4342 60.8605 24.6924Z" fill="#2B2D42"/>
<path d="M94.2625 24.8975C94.2625 21.6188 94.6724 19.1598 95.3896 17.418C96.1068 15.6762 97.4387 14.754 99.4879 14.754C101.127 14.754 102.357 15.6762 103.074 17.418C103.791 19.1598 104.201 21.7212 104.201 24.9999C104.201 26.6393 104.099 28.1762 103.894 29.4057H111.681C111.885 28.0737 111.988 26.6393 111.988 24.9999C111.988 20.1844 111.066 16.7008 109.324 14.4467C107.582 12.1926 105.021 11.168 101.64 11.168C99.6929 11.168 98.0535 11.5778 96.824 12.3975C95.5945 13.2172 94.5699 14.2417 93.8527 15.5737H93.6478L92.7256 11.6803H82.7871V14.3442H83.0945C84.1191 14.3442 84.8363 14.5491 85.5535 14.959C86.1683 15.3688 86.4756 16.2909 86.4756 17.8278V29.5081H94.4674C94.365 28.0737 94.2625 26.6393 94.2625 24.8975Z" fill="#2B2D42"/>
<path d="M86.5777 44.1599C86.5777 45.082 86.3728 45.7992 85.9629 46.2091C85.5531 46.7214 85.1433 46.9263 84.5285 47.1312C84.0162 47.2337 83.4015 47.3361 82.8892 47.3361H82.2744V50H98.8728V47.3361H97.7457C97.2334 47.3361 96.7211 47.2337 96.1064 47.1312C95.5941 47.0287 95.0818 46.7214 94.672 46.2091C94.2621 45.6968 94.0572 45.082 94.0572 44.1599V40.7787C94.0572 40.5738 94.0572 40.2664 94.0572 40.0615H86.3728V44.1599H86.5777Z" fill="#2B2D42"/>
<path d="M127.049 11.5776H115.164V14.2416H115.779C116.291 14.2416 116.803 14.344 117.316 14.4465C117.828 14.5489 118.34 14.8563 118.75 15.2662C119.16 15.676 119.365 16.3932 119.365 17.2129V29.4055H127.049V11.5776Z" fill="#2B2D42"/>
<path d="M119.877 6.25C120.697 6.86475 121.721 7.06967 122.951 7.06967C124.18 7.06967 125.102 6.76229 126.025 6.25C126.844 5.63525 127.356 4.81557 127.356 3.58607C127.356 2.35656 126.947 1.43443 126.025 0.819672C125.205 0.307377 124.18 0 122.951 0C121.721 0 120.697 0.307377 119.877 0.819672C119.057 1.33197 118.647 2.2541 118.647 3.58607C118.647 4.81557 119.057 5.63525 119.877 6.25Z" fill="#2B2D42"/>
<path d="M144.672 14.9589H151.127V11.5777H144.672V5.43018H140.471C139.959 7.58182 139.139 9.22116 138.115 10.3482C137.603 10.8605 136.885 11.3728 136.066 11.7826C135.246 12.1925 134.221 12.3974 133.197 12.3974V14.9589H136.988V29.4056H144.672V14.9589V14.9589Z" fill="#2B2D42"/>
</svg>
