<svg width="125" height="50" viewBox="0 0 125 50" fill="none" xmlns="http://www.w3.org/2000/svg">
<path d="M21.0659 9.36606C21.0571 9.75248 20.9628 10.1322 20.79 10.4779C20.6171 10.8236 20.3699 11.1268 20.0661 11.3657C19.4467 11.8717 18.6659 12.1379 17.8665 12.1155C17.2694 12.1557 16.6775 11.982 16.1968 11.6256C16.006 11.4644 15.8546 11.2616 15.7541 11.0329C15.6536 10.8042 15.6067 10.5555 15.6169 10.3059C15.592 9.67027 15.794 9.04654 16.1868 8.54622C16.5831 8.07739 17.1192 7.74799 17.7165 7.60641H17.3066C16.0022 7.56999 14.7158 7.91766 13.6073 8.60621C12.8798 9.08612 12.2905 9.74787 11.8977 10.5258C11.3586 11.6171 10.9396 12.7635 10.6479 13.9452L10.278 15.3249H14.7471C16.2509 15.3053 17.7499 15.1514 19.2262 14.865L15.227 28.5323C15.1154 28.8165 15.0512 29.1171 15.037 29.4221C15.037 29.852 15.237 30.062 15.6269 30.062C15.8136 30.05 15.9954 29.9973 16.1595 29.9074C16.3236 29.8176 16.466 29.6929 16.5767 29.5421C17.0125 28.9684 17.3504 28.3265 17.5765 27.6425L18.1664 26.1728H18.7463L17.9465 28.4123C17.6565 29.4004 17.0306 30.2561 16.1768 30.8318C15.4334 31.3084 14.5703 31.5649 13.6873 31.5717C13.3252 31.6009 12.961 31.5557 12.6171 31.4388C12.2732 31.3218 11.9569 31.1357 11.6877 30.8918C11.2293 30.3689 10.9958 29.6863 11.0378 28.9922C11.0483 28.2093 11.1833 27.4331 11.4377 26.6927L14.6171 15.9348H10.118L4.46912 36.3707C2.9689 36.3666 1.47193 36.5106 0 36.8007L5.79886 15.8048H3.14938L3.32934 15.1949H5.99882C6.35309 13.8287 6.90551 12.5218 7.6385 11.3157C8.23908 10.3494 9.04457 9.52686 9.99803 8.90615C11.0112 8.25487 12.1264 7.77833 13.2974 7.49643C14.6088 7.19589 15.9512 7.05159 17.2966 7.06651C18.4053 6.97568 19.5104 7.28028 20.416 7.92634C20.6475 8.0821 20.831 8.29936 20.9458 8.55371C21.0606 8.80805 21.1022 9.08938 21.0659 9.36606V9.36606Z" fill="#2B2D42"/>
<path d="M34.7431 15.4546C34.9662 15.6943 35.1395 15.9759 35.2528 16.2832C35.366 16.5904 35.4171 16.9171 35.4029 17.2443C35.423 18.0761 35.1181 18.883 34.5531 19.4938C34.2966 19.7934 33.9773 20.0328 33.6179 20.1952C33.2585 20.3577 32.8678 20.439 32.4735 20.4336C31.9717 20.4793 31.4722 20.3248 31.0838 20.0037C30.9116 19.824 30.779 19.61 30.6946 19.3758C30.6102 19.1416 30.5759 18.8923 30.5939 18.644C30.5902 17.9249 30.8539 17.23 31.3337 16.6944C31.8008 16.1313 32.4403 15.7378 33.1534 15.5746C33.0905 15.585 33.0263 15.585 32.9634 15.5746C32.8968 15.546 32.8258 15.5291 32.7534 15.5246C31.7536 15.5246 30.6339 16.2845 29.5441 17.7942C28.4543 19.3039 27.3445 22.0033 26.2147 25.8826L24.855 31.0016H20.5059L24.2651 17.7542C24.3707 17.4486 24.4247 17.1276 24.4251 16.8044C24.4251 16.4144 24.2551 16.2245 23.9252 16.2245C23.728 16.2355 23.5358 16.2906 23.3628 16.3858C23.1897 16.4809 23.0403 16.6137 22.9254 16.7744C22.495 17.3405 22.1575 17.9717 21.9256 18.644L21.3357 20.2037H20.7558L21.5856 17.8741C21.8324 16.9436 22.3887 16.1247 23.1628 15.5523C23.9369 14.9799 24.8828 14.6881 25.8448 14.7248C27.4245 14.7248 28.2143 15.5446 28.2143 17.2043C28.2269 17.828 28.1528 18.4505 27.9944 19.0539L27.7544 20.0537C28.256 18.5514 29.0475 17.1621 30.084 15.9645C30.453 15.5835 30.8963 15.2822 31.3864 15.0793C31.8765 14.8764 32.403 14.7761 32.9334 14.7848C33.2647 14.7681 33.5959 14.8188 33.907 14.934C34.218 15.0491 34.5025 15.2263 34.7431 15.4546V15.4546Z" fill="#2B2D42"/>
<path d="M36.5632 33.6512C37.1339 33.7526 37.7134 33.7962 38.2928 33.7812C39.1629 33.8141 40.0307 33.6737 40.846 33.3682C41.6613 33.0627 42.4077 32.5981 43.0419 32.0016C43.6703 31.3531 44.1567 30.5807 44.47 29.7338C44.7833 28.8868 44.9166 27.9839 44.8615 27.0825C44.856 25.7122 44.5914 24.3553 44.0817 23.0833C43.4007 21.4838 42.5278 19.9731 41.4822 18.5842C40.2903 17.0372 39.2111 15.4067 38.2528 13.7052C37.5579 12.3093 37.2147 10.7648 37.253 9.20604C37.23 7.51929 37.7066 5.86344 38.6228 4.44698C39.5299 3.0448 40.7972 1.91219 42.292 1.16763C43.845 0.396135 45.557 -0.00105446 47.2911 0.00785363C49.267 -0.0648952 51.2288 0.368754 52.9899 1.26761C53.7477 1.70183 54.3652 2.34416 54.7692 3.11851C55.1732 3.89286 55.3468 4.76677 55.2695 5.63675C55.2586 6.44924 54.9966 7.23848 54.5196 7.8963C54.2744 8.25941 53.9391 8.55259 53.5465 8.74713C53.1539 8.94167 52.7175 9.03091 52.2801 9.00608C51.9348 9.01665 51.5912 8.95345 51.2722 8.82069C50.9533 8.68794 50.6663 8.48869 50.4304 8.23623C50.183 7.97889 49.9892 7.67484 49.8605 7.34183C49.7317 7.00882 49.6706 6.65351 49.6806 6.29662C49.7682 4.68358 50.4111 3.1505 51.5002 1.95747C50.5128 1.395 49.386 1.12456 48.2509 1.17762C47.495 1.15282 46.7422 1.28683 46.0413 1.57098C45.3404 1.85513 44.7069 2.28311 44.1817 2.8273C43.6304 3.43392 43.205 4.14402 42.9304 4.91636C42.6558 5.68871 42.5374 6.50791 42.582 7.32641C42.5568 8.31862 42.7586 9.30346 43.1719 10.2058C43.8111 11.4277 44.5291 12.6066 45.3214 13.7352L46.4912 15.4048C47.586 17.0299 48.5521 18.7381 49.3806 20.5138C50.0202 21.8933 50.3609 23.3925 50.3804 24.913C50.4042 26.7727 49.8715 28.5972 48.8507 30.1519C47.8342 31.7071 46.4185 32.9606 44.7516 33.7812C43.0228 34.644 41.1147 35.0859 39.1826 35.071C36.9926 35.1426 34.8267 34.5951 32.9339 33.4913C32.1148 32.9923 31.4461 32.2808 30.999 31.4323C30.5518 30.5838 30.3429 29.63 30.3944 28.6722C30.3915 27.9579 30.6078 27.26 31.0143 26.6726C31.2294 26.3691 31.5189 26.126 31.8551 25.9667C32.1913 25.8074 32.5627 25.7371 32.9339 25.7628C33.349 25.7569 33.7583 25.8611 34.1201 26.0648C34.4819 26.2685 34.7833 26.5645 34.9935 26.9226C35.5002 27.8062 35.7495 28.814 35.7133 29.832C35.6585 30.9663 35.5046 32.0938 35.2534 33.2013C35.6701 33.404 36.1099 33.5551 36.5632 33.6512V33.6512Z" fill="#2B2D42"/>
<path d="M56.7487 28.4322C56.6903 28.6303 56.66 28.8356 56.6588 29.0421C56.6476 29.1684 56.6643 29.2955 56.7074 29.4147C56.7506 29.5338 56.8193 29.6421 56.9087 29.732C57.0008 29.8139 57.1085 29.8765 57.2253 29.916C57.3421 29.9555 57.4656 29.9711 57.5886 29.9619C57.8406 29.9482 58.0871 29.8825 58.3125 29.7689C58.5379 29.6554 58.7373 29.4964 58.8983 29.302C59.4036 28.7185 59.7846 28.0381 60.0181 27.3024L60.488 26.0427H61.0679L60.448 27.8223C59.6482 30.2352 58.1085 31.4416 55.8289 31.4416C55.4005 31.4737 54.97 31.4175 54.5641 31.2765C54.1582 31.1355 53.7856 30.9126 53.4694 30.6218C53.1947 30.3243 52.9832 29.9743 52.8474 29.5928C52.7117 29.2113 52.6546 28.8063 52.6795 28.4022C52.695 27.7872 52.7994 27.1777 52.9895 26.5926L56.0689 15.8047H53.2994L53.4494 15.1948H56.2588L57.5886 10.6257C59.0886 10.6263 60.5853 10.4824 62.0577 10.1958L60.608 15.1948H64.0873L63.9873 15.8047H60.418L56.7487 28.4322Z" fill="#2B2D42"/>
<path d="M79.1145 26.0027H79.6943L78.8645 28.3322C78.5836 29.3004 77.9938 30.1502 77.1848 30.7518C76.4621 31.2407 75.6079 31.4987 74.7353 31.4916C74.2474 31.5026 73.7629 31.407 73.3156 31.2117C72.9517 31.0533 72.6472 30.7838 72.4458 30.4418C72.2595 30.052 72.1671 29.624 72.1758 29.1921C72.2047 28.5168 72.3052 27.8465 72.4758 27.1925L73.3156 24.0031C72.6875 25.5815 71.9073 27.095 70.9861 28.5222C70.4149 29.4425 69.6465 30.2244 68.7365 30.8118C67.958 31.2574 67.0739 31.4853 66.177 31.4716C65.4269 31.5233 64.6846 31.2914 64.0974 30.8218C63.865 30.5815 63.6847 30.2959 63.5677 29.9828C63.4507 29.6697 63.3996 29.3359 63.4176 29.0021C63.4318 28.2815 63.567 27.5684 63.8175 26.8925L66.8169 17.8943C66.9288 17.5763 66.9862 17.2416 66.9868 16.9045C66.9868 16.4746 66.7969 16.2646 66.407 16.2646C66.2123 16.2721 66.0216 16.3226 65.8488 16.4125C65.6759 16.5024 65.5251 16.6294 65.4072 16.7845C64.9603 17.3511 64.6214 17.995 64.4074 18.6841L63.8575 20.1539H63.2676L64.0374 17.9143C64.2634 16.9952 64.7974 16.1814 65.5506 15.6083C66.3038 15.0352 67.2306 14.7376 68.1766 14.7649C70.0462 14.7649 70.9761 15.6147 70.9761 17.3044C70.9501 18.0981 70.8052 18.8833 70.5461 19.634L67.7767 27.9123C67.614 28.3346 67.5195 28.7801 67.4967 29.2321C67.4967 29.702 67.6867 29.9319 68.0766 29.9319C68.6965 29.9319 69.4264 29.3321 70.2662 28.1223C71.2791 26.6182 72.1335 25.0133 72.8157 23.3332C73.7016 21.2382 74.4595 19.0913 75.0853 16.9045L75.5452 15.1948C77.0447 15.1849 78.5403 15.041 80.0143 14.7649L76.215 28.4322C76.1063 28.7552 76.0424 29.0916 76.0251 29.432C76.0147 29.5036 76.0213 29.5766 76.0444 29.6451C76.0675 29.7137 76.1065 29.7758 76.1581 29.8264C76.2097 29.8771 76.2726 29.9148 76.3415 29.9366C76.4105 29.9584 76.4836 29.9637 76.555 29.9519C76.7521 29.9409 76.9443 29.8858 77.1174 29.7906C77.2904 29.6954 77.4399 29.5627 77.5548 29.402C77.9671 28.8352 78.2814 28.2032 78.4846 27.5324L79.1145 26.0027Z" fill="#2B2D42"/>
<path d="M96.9007 26.0726H97.4905L96.7507 28.3122C96.5041 29.2965 95.9204 30.1632 95.101 30.7617C94.3813 31.2299 93.5401 31.4767 92.6815 31.4716C92.1761 31.5404 91.6622 31.4393 91.2205 31.1841C90.7789 30.9289 90.4347 30.5341 90.242 30.0619C90.0628 29.6559 89.9741 29.2158 89.982 28.7721C90.0094 28.0325 90.1338 27.2998 90.352 26.5925V26.4726C89.7839 27.89 88.9412 29.1811 87.8724 30.2718C87.0244 31.0625 85.9023 31.4927 84.7431 31.4716C84.25 31.4903 83.7587 31.4037 83.3018 31.2175C82.8449 31.0313 82.433 30.7498 82.0936 30.3918C81.3566 29.4883 80.9983 28.3344 81.0938 27.1724C81.1445 25.2996 81.5837 23.4577 82.3835 21.7635C83.2117 19.8484 84.4547 18.141 86.0228 16.7645C87.493 15.459 89.3957 14.7464 91.3617 14.7649C91.7407 14.7099 92.1272 14.7772 92.4653 14.957C92.8033 15.1368 93.0752 15.4197 93.2414 15.7647L94.6311 10.5557C94.7159 10.2762 94.7663 9.9875 94.7811 9.69586C94.7884 9.51924 94.7488 9.34384 94.6662 9.18752C94.5837 9.03121 94.4612 8.89957 94.3112 8.80604C93.8012 8.58545 93.246 8.48949 92.6915 8.52609L92.8715 7.88622C94.1683 7.87889 95.4624 7.7652 96.7407 7.54628C97.8844 7.3495 99.0062 7.04143 100.09 6.62646L94.0912 28.3922C93.995 28.6584 93.9443 28.9389 93.9412 29.222C93.9412 29.6919 94.1312 29.9219 94.5311 29.9219C94.7131 29.9033 94.8891 29.8464 95.0476 29.7551C95.2061 29.6638 95.3436 29.5401 95.4509 29.392C95.887 28.8221 96.2249 28.1835 96.4508 27.5024L96.9007 26.0726ZM93.0514 16.5445C92.8215 15.8247 92.4115 15.4647 91.8117 15.4647C90.9318 15.4647 90.012 16.0946 89.0522 17.3544C87.9964 18.8018 87.1858 20.413 86.6527 22.1234C86.009 23.9553 85.6712 25.8807 85.6529 27.8223C85.6244 28.363 85.7061 28.9038 85.8928 29.412C85.9461 29.5673 86.0475 29.7015 86.1824 29.795C86.3173 29.8885 86.4786 29.9365 86.6427 29.9319C87.2261 29.836 87.7476 29.5124 88.0924 29.0321C88.7818 28.2368 89.3665 27.3565 89.8321 26.4126C90.5057 25.1062 91.0579 23.7408 91.4817 22.3334L93.0514 16.5445Z" fill="#2B2D42"/>
<path d="M103.35 16.8744C103.35 16.4644 103.16 16.2645 102.79 16.2645C102.591 16.2778 102.398 16.336 102.224 16.4347C102.051 16.5334 101.903 16.67 101.79 16.8344C101.367 17.3983 101.031 18.0216 100.79 18.684L100.17 20.2437H99.5903L100.45 17.9141C100.701 16.9802 101.263 16.1596 102.042 15.5872C102.822 15.0148 103.773 14.7248 104.739 14.7648C105.112 14.7315 105.487 14.7756 105.841 14.8943C106.196 15.013 106.522 15.2038 106.799 15.4546C107.242 15.9427 107.476 16.5855 107.449 17.2443C107.446 17.8631 107.331 18.4762 107.109 19.0539L103.869 28.4321C103.765 28.7178 103.704 29.0179 103.69 29.3219C103.69 29.7518 103.889 29.9618 104.299 29.9618C104.494 29.9536 104.684 29.9028 104.857 29.813C105.03 29.7231 105.181 29.5965 105.299 29.4419C105.735 28.8685 106.073 28.2265 106.299 27.5423L106.849 26.0725H107.439L106.639 28.3121C106.414 29.2382 105.876 30.0583 105.117 30.6339C104.357 31.2095 103.422 31.5053 102.47 31.4715C100.6 31.4715 99.6703 30.6216 99.6703 28.922C99.6925 28.1252 99.8479 27.3378 100.13 26.5924L103.13 17.7942C103.24 17.4977 103.314 17.1888 103.35 16.8744ZM105.229 8.07608C105.859 7.57741 106.646 7.31875 107.449 7.34623C108.05 7.31088 108.644 7.48781 109.128 7.84613C109.328 8.01868 109.486 8.23437 109.59 8.47687C109.694 8.71937 109.741 8.98233 109.728 9.24585C109.733 9.62659 109.653 10.0037 109.494 10.3496C109.335 10.6955 109.101 11.0016 108.809 11.2455C108.17 11.7845 107.355 12.0693 106.519 12.0453C105.907 12.0878 105.303 11.8946 104.829 11.5054C104.633 11.3227 104.482 11.0961 104.39 10.8442C104.298 10.5922 104.267 10.322 104.299 10.0557C104.296 9.67718 104.378 9.30282 104.539 8.9602C104.7 8.61759 104.936 8.31546 105.229 8.07608V8.07608Z" fill="#2B2D42"/>
<path d="M110.299 21.1637C111.046 19.3833 112.224 17.8166 113.728 16.6046C115.256 15.3698 117.173 14.7178 119.137 14.765C119.809 14.7211 120.483 14.8137 121.119 15.037C121.755 15.2604 122.339 15.61 122.836 16.0647C123.293 16.5729 123.643 17.1673 123.866 17.813C124.089 18.4586 124.181 19.1424 124.136 19.824C124.105 21.6305 123.71 23.4122 122.976 25.063C122.232 26.8458 121.057 28.4158 119.557 29.6321C118.022 30.8615 116.104 31.5126 114.138 31.4717C113.465 31.5142 112.79 31.4201 112.154 31.195C111.518 30.9699 110.935 30.6185 110.438 30.162C109.985 29.6545 109.637 29.0614 109.415 28.4175C109.194 27.7737 109.103 27.0921 109.149 26.4127C109.175 24.6035 109.566 22.8181 110.299 21.1637ZM116.487 17.5544C115.486 19.2189 114.716 21.0116 114.198 22.8834C113.616 24.7935 113.307 26.7759 113.278 28.7722C113.242 29.3141 113.328 29.8571 113.528 30.3619C113.595 30.5156 113.708 30.645 113.851 30.7326C113.994 30.8202 114.16 30.8618 114.328 30.8518C115.088 30.8518 115.917 30.152 116.807 28.7422C117.803 27.1024 118.567 25.3326 119.077 23.4833C119.667 21.5376 119.977 19.5176 119.997 17.4845C120.036 16.9172 119.954 16.3479 119.757 15.8148C119.689 15.6687 119.58 15.5455 119.443 15.4603C119.306 15.3751 119.148 15.3315 118.987 15.3349C118.217 15.3749 117.387 16.1047 116.487 17.5544V17.5544Z" fill="#2B2D42"/>
<path d="M19.436 45.1888L18.6262 49.8279H16.4966L18.6762 37.3303H22.9953C23.5553 37.2969 24.1164 37.3742 24.6465 37.5578C25.1766 37.7413 25.6653 38.0276 26.0847 38.4001C26.4638 38.7586 26.7522 39.2022 26.9261 39.6942C27.0999 40.1862 27.1542 40.7124 27.0845 41.2296C27.0523 41.7886 26.9031 42.3347 26.6465 42.8325C26.3899 43.3302 26.0316 43.7685 25.5948 44.119C24.5875 44.8711 23.3515 45.2525 22.0955 45.1988L19.436 45.1888ZM19.7459 43.4391H22.1855C22.8673 43.4643 23.5374 43.2562 24.0851 42.8492C24.5895 42.4543 24.9167 41.8754 24.9949 41.2396C25.0456 40.9736 25.0397 40.7 24.9777 40.4364C24.9157 40.1729 24.7989 39.9253 24.635 39.7099C24.4542 39.5085 24.2318 39.3488 23.9832 39.2418C23.7347 39.1347 23.4658 39.0829 23.1953 39.09H20.5058L19.7459 43.4391Z" fill="#2B2D42"/>
<path d="M34.1232 45.8885H32.3536L31.6637 49.8277H29.4941L31.3738 39.0698H34.9931C35.9875 39.0047 36.9717 39.3032 37.7625 39.9097C38.0847 40.2008 38.3312 40.5658 38.481 40.9734C38.6308 41.3809 38.6793 41.8188 38.6223 42.2492C38.5915 42.9452 38.3463 43.6146 37.9203 44.1658C37.4944 44.7171 36.9085 45.1232 36.2428 45.3286L37.7625 49.6977V49.8177H35.403L34.1232 45.8885ZM32.6735 44.0888H34.2932C34.8049 44.1008 35.3054 43.9386 35.7129 43.6289C36.0873 43.3257 36.3278 42.8878 36.3828 42.4092C36.4287 42.2171 36.4319 42.0172 36.3922 41.8237C36.3525 41.6303 36.2708 41.4478 36.1528 41.2894C36.0189 41.1433 35.8547 41.0282 35.6716 40.9522C35.4885 40.8762 35.2911 40.8411 35.093 40.8495H33.2334L32.6735 44.0888Z" fill="#2B2D42"/>
<path d="M43.1313 49.8277H40.9917L42.8713 39.0698H44.9909L43.1313 49.8277Z" fill="#2B2D42"/>
<path d="M56.8888 49.8281H54.8192L50.89 40.8299L49.3303 49.8281H47.2007L49.3803 37.3306H51.4498L55.3791 46.3288L56.9488 37.3306H59.0684L56.8888 49.8281Z" fill="#2B2D42"/>
<path d="M72.286 39.0802H68.4867L66.6071 49.8281H64.4875L66.3671 39.0802H62.5879L62.9078 37.3306H72.5959L72.286 39.0802Z" fill="#2B2D42"/>
<path d="M76.4448 49.8281H74.3252L76.5148 37.3306H78.6344L76.4448 49.8281Z" fill="#2B2D42"/>
<path d="M90.982 49.8281H88.8824L84.9532 40.8299L83.3935 49.8281H81.2539L83.4435 37.3306H85.5031L89.4323 46.3288L91.002 37.3306H93.1316L90.982 49.8281Z" fill="#2B2D42"/>
<path d="M105.389 48.2085C104.866 48.8413 104.172 49.31 103.39 49.5583C102.483 49.8704 101.529 50.0194 100.57 49.9982C99.8051 50.0062 99.051 49.8168 98.3805 49.4483C97.739 49.0694 97.2162 48.5188 96.8708 47.8586C96.4903 47.1207 96.2754 46.3086 96.241 45.4791C96.2154 44.6009 96.2858 43.7225 96.4509 42.8596C96.6194 41.8629 96.9575 40.9025 97.4507 40.0201C97.8714 39.2333 98.4623 38.5501 99.1804 38.0205C100.112 37.386 101.223 37.0671 102.35 37.1107C102.896 37.0818 103.443 37.1625 103.958 37.3479C104.474 37.5333 104.946 37.8198 105.349 38.1905C106.103 38.9822 106.535 40.0268 106.559 41.1199H104.479C104.359 39.6502 103.639 38.9004 102.33 38.8604C101.879 38.8348 101.428 38.9115 101.011 39.0846C100.593 39.2577 100.221 39.5228 99.9202 39.8602C99.2034 40.7643 98.7563 41.8525 98.6305 42.9995C98.5133 43.6336 98.4398 44.275 98.4105 44.9192C98.3365 45.7691 98.5362 46.6204 98.9804 47.3487C99.1804 47.638 99.4502 47.8722 99.7648 48.0295C100.079 48.1868 100.429 48.2621 100.78 48.2485C101.673 48.3044 102.556 48.0384 103.27 47.4987L103.729 45.0591H101.21L101.5 43.4095H106.129L105.389 48.2085Z" fill="#2B2D42"/>
</svg>
