<svg width="157" height="50" viewBox="0 0 157 50" fill="none" xmlns="http://www.w3.org/2000/svg">
<path d="M40.9346 48.8421L41.6634 47.2247C42.5656 47.8574 43.6367 48.2052 44.7385 48.2231C46.0164 48.2231 46.5356 47.8037 46.5356 47.2247C46.5356 45.4875 41.1243 46.6855 41.1243 43.2311C41.1243 41.6536 42.4022 40.3357 45.048 40.3357C46.177 40.3132 47.2912 40.5961 48.2728 41.1544L47.6139 42.7918C46.8288 42.3308 45.9382 42.0798 45.028 42.0629C43.7501 42.0629 43.2608 42.5422 43.2608 43.1212C43.2608 44.8385 48.6722 43.6604 48.6722 47.1148C48.6722 48.6724 47.3842 50.0002 44.7285 50.0002C43.3755 50.0092 42.0519 49.6051 40.9346 48.8421V48.8421Z" fill="#2B2D42"/>
<path d="M56.4791 42.222H53.4839V40.4648H61.6009V42.222H58.6057V49.7599H56.4791V42.222Z" fill="#2B2D42"/>
<path d="M67.0527 45.6665V40.4648H69.1993V45.5866C69.1993 47.3538 69.978 48.0826 71.276 48.0826C72.5739 48.0826 73.3526 47.3538 73.3526 45.5866V40.4648H75.4792V45.6665C75.4792 48.4021 73.8818 49.9197 71.266 49.9197C68.6502 49.9197 67.0527 48.4021 67.0527 45.6665Z" fill="#2B2D42"/>
<path d="M82.1279 40.4648H86.3611C89.3563 40.4648 91.4929 42.3019 91.4929 45.1074C91.4929 47.9129 89.4063 49.7599 86.3611 49.7599H82.1279V40.4648ZM86.2513 47.9928C86.6438 48.0159 87.0369 47.9585 87.4065 47.8242C87.7761 47.6899 88.1143 47.4815 88.4004 47.2118C88.6864 46.9421 88.9144 46.6167 89.0702 46.2557C89.226 45.8946 89.3063 45.5056 89.3063 45.1124C89.3063 44.7192 89.226 44.3301 89.0702 43.9691C88.9144 43.6081 88.6864 43.2827 88.4004 43.013C88.1143 42.7433 87.7761 42.5348 87.4065 42.4005C87.0369 42.2662 86.6438 42.2089 86.2513 42.232H84.2545V47.9928H86.2513Z" fill="#2B2D42"/>
<path d="M97.6333 40.4648H99.8398V49.7599H97.6333V40.4648Z" fill="#2B2D42"/>
<path d="M105.93 45.1077C105.872 44.0879 106.122 43.0741 106.646 42.1977C107.171 41.3213 107.947 40.6225 108.873 40.1919C109.799 39.7612 110.833 39.6185 111.841 39.7823C112.85 39.946 113.786 40.4086 114.528 41.1103C115.27 41.8119 115.785 42.7202 116.005 43.7176C116.226 44.715 116.142 45.7556 115.764 46.7046C115.386 47.6537 114.732 48.4675 113.887 49.0408C113.041 49.614 112.043 49.9203 111.022 49.92C110.367 49.9581 109.711 49.8618 109.094 49.6371C108.478 49.4124 107.914 49.064 107.437 48.6133C106.96 48.1625 106.58 47.619 106.321 47.0162C106.062 46.4133 105.929 45.7639 105.93 45.1077V45.1077ZM113.917 45.1077C113.902 44.5347 113.717 43.9791 113.388 43.5103C113.058 43.0415 112.597 42.6803 112.063 42.4719C111.529 42.2634 110.946 42.217 110.386 42.3383C109.826 42.4597 109.314 42.7434 108.914 43.1541C108.514 43.5649 108.244 44.0843 108.138 44.6475C108.032 45.2108 108.094 45.7928 108.317 46.3209C108.54 46.8489 108.913 47.2996 109.391 47.6166C109.868 47.9335 110.429 48.1027 111.002 48.1029C111.396 48.1174 111.79 48.0494 112.156 47.9032C112.523 47.7571 112.855 47.5359 113.132 47.254C113.408 46.972 113.622 46.6355 113.761 46.2659C113.9 45.8963 113.96 45.5018 113.937 45.1077H113.917Z" fill="#2B2D42"/>
<path d="M156.808 17.2226H153.693V20.2677H151.377V17.2226H148.272V15.0361H151.377V11.981H153.693V15.0261H156.808V17.2226Z" fill="#2B2D42"/>
<path d="M102.576 9.86426V22.3942H100.189L93.9294 14.7864V22.3942H91.064V9.86426H93.4601L99.7101 17.4721V9.86426H102.576Z" fill="#2B2D42"/>
<path d="M118.859 20.0679V22.3942H109.145V9.86426H118.63V12.1905H112.03V14.9162H117.861V17.1725H112.03V20.0679H118.859Z" fill="#2B2D42"/>
<path d="M127.366 12.2205H123.372V9.86426H134.354V12.2205H130.361V22.3942H127.456L127.366 12.2205Z" fill="#2B2D42"/>
<path d="M12.3501 0V33.047H142.771V0H12.3501ZM34.3149 22.3941V14.8762L30.6108 21.0762H29.283L25.6088 15.0858V22.444H22.8832V9.86419H25.2894L29.9818 17.6517L34.6144 9.86419H37.0006V22.3941H34.3149ZM52.9949 22.3941L51.9167 19.7084H46.0361L44.9279 22.3941H41.9327L47.5237 9.86419H50.4191L56.0301 22.3941H52.9949ZM66.9725 20.1377C67.7574 20.1554 68.5338 19.9733 69.2289 19.6086V15.9744H71.8847V21.0562C70.4029 22.1065 68.6289 22.6652 66.8128 22.6537C62.8192 22.6537 59.9538 19.948 59.9538 16.1741C59.9538 12.4001 62.8991 9.64454 66.8927 9.64454C67.8749 9.59804 68.8553 9.768 69.7645 10.1424C70.6737 10.5168 71.4896 11.0864 72.1542 11.8111L70.2872 13.5283C69.879 13.0746 69.378 12.714 68.8181 12.4711C68.2582 12.2282 67.6526 12.1087 67.0424 12.1206C66.5033 12.0853 65.9628 12.1635 65.4558 12.3501C64.9488 12.5368 64.4865 12.8276 64.0989 13.204C63.7113 13.5803 63.4069 14.0337 63.2054 14.535C63.0039 15.0363 62.9097 15.5743 62.929 16.1142C62.9062 16.6503 62.9954 17.1854 63.1908 17.6852C63.3862 18.185 63.6836 18.6386 64.064 19.0171C64.4444 19.3957 64.8995 19.6908 65.4003 19.8837C65.901 20.0767 66.4365 20.1632 66.9725 20.1377V20.1377ZM139.446 29.7423H81.1997V3.3047H139.446V29.7423Z" fill="#2B2D42"/>
<path d="M46.9746 17.5118H50.9482L48.9614 12.7095L46.9746 17.5118Z" fill="#031926"/>
<path d="M0 14.9761H5.07187V17.1726H0V14.9761Z" fill="#2B2D42"/>
</svg>
