<svg width="119" height="51" viewBox="0 0 119 51" fill="none" xmlns="http://www.w3.org/2000/svg">
<path d="M48.79 22.3801C49.0823 22.3791 49.3726 22.3318 49.65 22.2401C49.8647 22.1444 50.0334 21.9685 50.12 21.7501C50.2526 21.368 50.3103 20.964 50.29 20.5601V12.5601C50.2798 11.9357 50.3065 11.3113 50.37 10.6901L48.79 10.7501V9.14006H54.79C56.3418 9.03946 57.8898 9.38655 59.25 10.1401C59.7784 10.508 60.2008 11.0084 60.4746 11.5912C60.7484 12.1739 60.8641 12.8185 60.81 13.4601C60.8074 14.3931 60.4703 15.2943 59.86 16.0001C59.1202 16.8098 58.1558 17.3807 57.09 17.6401V17.6401C57.3794 17.7603 57.6439 17.9332 57.87 18.1501C58.1282 18.3855 58.3536 18.6546 58.54 18.9501L59.54 20.4101C59.8748 20.9653 60.2743 21.4789 60.73 21.9401C61.0563 22.2195 61.4705 22.3753 61.9 22.3801V23.7501H58.41C58.1347 23.5398 57.8949 23.2865 57.7 23.0001C57.4027 22.6031 57.1289 22.1891 56.88 21.7601L55.32 19.2601C55.0634 18.8288 54.7653 18.4235 54.43 18.0501H53.34V20.2801C53.3482 20.9146 53.3181 21.5491 53.25 22.1801C53.7034 22.1401 54.3034 22.1201 55.05 22.1201V23.7201H48.79V22.3801ZM56.85 15.8101C57.1287 15.4819 57.3394 15.1016 57.4699 14.6913C57.6003 14.281 57.648 13.8489 57.61 13.4201C57.6702 12.9926 57.62 12.5569 57.4643 12.1543C57.3085 11.7517 57.0523 11.3957 56.72 11.1201C56.1212 10.7447 55.4267 10.5503 54.72 10.5601C54.3375 10.5291 53.9568 10.6394 53.65 10.8701C53.3688 11.2565 53.247 11.7363 53.31 12.2101V16.4901C53.6417 16.5348 53.9755 16.5615 54.31 16.5701C54.7626 16.6166 55.2199 16.5734 55.6557 16.443C56.0916 16.3126 56.4974 16.0975 56.85 15.8101V15.8101Z" fill="#2B2D42"/>
<path d="M69.5601 22.3801C69.8522 22.3781 70.1423 22.3309 70.4201 22.2401C70.5257 22.1935 70.6209 22.1261 70.6999 22.0419C70.7789 21.9577 70.8402 21.8585 70.8801 21.7501C71.0164 21.369 71.0743 20.9642 71.0501 20.5601V12.5601C71.0424 11.9356 71.0724 11.3111 71.1401 10.6901L69.5601 10.7501V9.14014H75.5601V10.5201C75.2684 10.5187 74.9783 10.5626 74.7001 10.6501C74.5925 10.6982 74.4956 10.7672 74.4149 10.853C74.3343 10.9388 74.2714 11.0398 74.2301 11.1501C74.1009 11.5329 74.0466 11.9369 74.0701 12.3401V20.3401C74.0842 20.9643 74.0609 21.5888 74.0001 22.2101C74.4501 22.2101 75.0001 22.1501 75.5801 22.1501V23.7501H69.5801L69.5601 22.3801Z" fill="#2B2D42"/>
<path d="M86.91 23.1099C85.83 22.4634 84.9479 21.533 84.36 20.4199C83.7536 19.2603 83.4444 17.9684 83.46 16.6599C83.4545 15.3487 83.745 14.0532 84.31 12.8699C84.8675 11.6793 85.7387 10.6629 86.83 9.92992C88.0193 9.16047 89.4141 8.76994 90.83 8.80992C91.4461 8.81778 92.0582 8.9086 92.65 9.07992C93.2798 9.25148 93.8848 9.50356 94.45 9.82992V9.82992L94.39 8.99992H96V13.8699H94.64C94.26 11.5633 93.08 10.3933 91.1 10.3599C90.2309 10.3382 89.3828 10.6292 88.71 11.1799C88.0365 11.7664 87.5324 12.5226 87.25 13.3699C86.9151 14.3066 86.7492 15.2953 86.76 16.2899C86.7427 17.3765 86.9222 18.4573 87.29 19.4799C87.5834 20.3342 88.1099 21.0893 88.81 21.6599C89.486 22.1945 90.3286 22.4742 91.19 22.4499C92.1136 22.4424 93.0209 22.2052 93.83 21.7599C94.6885 21.2868 95.43 20.6273 96 19.8299L97 20.7499C96.2471 21.8713 95.2125 22.7748 94 23.3699C92.9645 23.8336 91.8445 24.0787 90.71 24.0899C89.3774 24.1183 88.0627 23.7792 86.91 23.1099Z" fill="#2B2D42"/>
<path d="M104.58 22.3801C104.872 22.3791 105.163 22.3319 105.44 22.2401C105.547 22.1941 105.644 22.1271 105.725 22.0429C105.806 21.9587 105.869 21.8591 105.91 21.7501C106.043 21.3681 106.1 20.964 106.08 20.5601V12.5601C106.07 11.9358 106.097 11.3113 106.16 10.6901L104.58 10.7501V9.14014H110.58V10.5201C110.285 10.5205 109.992 10.5643 109.71 10.6501C109.604 10.6988 109.509 10.7681 109.43 10.854C109.351 10.9398 109.29 11.0405 109.25 11.1501C109.117 11.532 109.059 11.9362 109.08 12.3401V15.5101H110.6L112.22 12.7701C112.597 12.0131 113.078 11.3129 113.65 10.6901V10.6901L112.85 10.7401C112.63 10.7401 112.45 10.7401 112.32 10.7401V9.14014H117.48V10.5201C116.89 10.5467 116.313 10.7038 115.79 10.9801C115.131 11.3912 114.59 11.9667 114.22 12.6501L112.22 15.8601C112.737 16.1712 113.185 16.5826 113.54 17.0701L115.71 20.0701C116.71 21.5301 117.71 22.2801 118.47 22.3301V23.7001H115.23C115.07 23.7001 114.77 23.4401 114.31 22.9601C113.893 22.5258 113.509 22.0612 113.16 21.5701L111.08 18.5701C110.88 18.2901 110.67 18.0101 110.45 17.7301C110.277 17.5085 110.079 17.3072 109.86 17.1301H109.1V20.2801C109.105 20.9078 109.079 21.5352 109.02 22.1601C109.47 22.1601 110.02 22.1001 110.6 22.1001V23.7001H104.6L104.58 22.3801Z" fill="#2B2D42"/>
<path d="M5.00022 42.9998C4.79022 42.5098 4.54022 41.8298 4.25022 40.9998C3.96022 40.1698 3.72021 39.2298 3.53021 38.3298C3.53021 39.5998 3.59021 40.7498 3.59021 41.7898V42.4998V46.2798C3.6043 46.9084 3.56751 47.5371 3.48021 48.1598C3.95021 48.1598 4.48021 48.0998 5.08021 48.0998V49.7098H0.220215V48.2898C0.515653 48.2877 0.809039 48.2405 1.09021 48.1498C1.19586 48.1032 1.29103 48.0358 1.37006 47.9516C1.44909 47.8674 1.51036 47.7682 1.55021 47.6598C1.68348 47.2779 1.74122 46.8737 1.72021 46.4698L1.84021 38.4698C1.84021 37.4698 1.90021 36.8298 1.93021 36.5898L0.350215 36.6498V35.0498H5.00022L8.18022 43.1298C8.39022 43.6798 8.62021 44.2698 8.86021 44.9298C9.10021 45.5898 9.26021 46.0798 9.36021 46.4298C9.42021 46.2898 9.57021 45.8598 9.83021 45.1398C10.0902 44.4198 10.2002 44.0798 10.3502 43.6798L13.6202 35.0498H18.5002V36.4298C18.2015 36.4324 17.9049 36.4796 17.6202 36.5698C17.5093 36.6136 17.4086 36.6796 17.3243 36.7639C17.24 36.8482 17.174 36.9489 17.1302 37.0598C17.004 37.443 16.9597 37.8484 17.0002 38.2498L17.3102 46.2498C17.3576 46.8774 17.3307 47.5085 17.2302 48.1298C17.6902 48.1298 18.2302 48.0698 18.8302 48.0698V49.6798H13.0002V48.2898C13.2989 48.2872 13.5955 48.24 13.8802 48.1498C13.9883 48.1053 14.086 48.0388 14.1669 47.9544C14.2479 47.87 14.3103 47.7697 14.3502 47.6598C14.4798 47.2773 14.5308 46.8725 14.5002 46.4698L14.3302 42.0498V41.2498C14.2602 39.8998 14.2202 38.9598 14.2002 38.4398L9.78021 49.8698H7.83021L5.00022 42.9998Z" fill="#2B2D42"/>
<path d="M27.0698 48.2898C27.3653 48.2877 27.6586 48.2405 27.9398 48.1498C28.0455 48.1032 28.1406 48.0358 28.2197 47.9516C28.2987 47.8674 28.36 47.7682 28.3998 47.6598C28.5331 47.2779 28.5908 46.8737 28.5698 46.4698V38.4698C28.5645 37.8422 28.5912 37.2147 28.6498 36.5898L27.0698 36.6498V35.0498H37.6098L37.7298 39.0998H36.3398C36.4038 38.7447 36.3834 38.3795 36.2801 38.0338C36.1769 37.688 35.9937 37.3714 35.7455 37.1096C35.4972 36.8477 35.1909 36.6479 34.8511 36.5264C34.5114 36.4048 34.1478 36.3649 33.7898 36.4098H33.0398C32.7642 36.4147 32.4911 36.4619 32.2298 36.5498C32.1231 36.5982 32.0277 36.6687 31.9502 36.7566C31.8726 36.8445 31.8146 36.9478 31.7798 37.0598C31.6587 37.4375 31.6045 37.8335 31.6198 38.2298V41.3598H34.0898C34.0898 41.1198 34.0898 40.5198 33.9998 39.5398H35.6298V44.6198H34.2398C34.2755 44.1987 34.1923 43.776 33.9998 43.3998C33.8437 43.1519 33.6015 42.9703 33.3198 42.8898C32.9526 42.8073 32.5755 42.777 32.1998 42.7998H31.6498V46.2198C31.6597 46.8342 31.633 47.4486 31.5698 48.0598H34.3898C34.726 48.0684 35.0605 48.009 35.3732 47.8853C35.6859 47.7616 35.9705 47.5761 36.2098 47.3398C36.4863 47.0307 36.6958 46.6676 36.8249 46.2734C36.9539 45.8793 36.9999 45.4626 36.9598 45.0498H38.2998L38.1998 49.6498H27.0698V48.2898Z" fill="#2B2D42"/>
<path d="M49.6102 48.2898C49.9024 48.2888 50.1927 48.2416 50.4702 48.1498C50.5783 48.1053 50.676 48.0388 50.7569 47.9544C50.8378 47.87 50.9002 47.7697 50.9402 47.6598C51.0734 47.2779 51.1312 46.8737 51.1102 46.4698V44.6598L47.2302 38.5798C47.0199 38.2325 46.8328 37.8718 46.6702 37.4998C46.5347 37.2174 46.4533 36.9122 46.4302 36.5998L45.4302 36.6598V35.0498H51.6402V36.4298C51.2714 36.3851 50.8974 36.4439 50.5602 36.5998C50.4334 36.653 50.3261 36.7439 50.2527 36.8602C50.1794 36.9765 50.1436 37.1125 50.1502 37.2498C50.1587 37.5312 50.2453 37.8047 50.4002 38.0398L52.0002 40.6498L52.4702 41.4598C52.7046 41.8451 52.9054 42.25 53.0702 42.6698L53.2102 42.3498L53.4002 41.9398L54.0602 40.6298L55.1502 38.4998C55.4427 37.8222 55.819 37.1839 56.2702 36.5998V36.5998L55.1702 36.6598H54.6402V35.0498H59.3002V36.4298C58.8169 36.4753 58.361 36.6751 58.0002 36.9998C57.5322 37.4798 57.147 38.0339 56.8602 38.6398L54.1202 43.8498V46.2098C54.1255 46.8374 54.0988 47.4649 54.0402 48.0898C54.5002 48.0498 55.0602 48.0298 55.7202 48.0298V49.6398H49.6102V48.2898Z" fill="#2B2D42"/>
<path d="M66.75 48.2898C67.0454 48.2877 67.3388 48.2405 67.62 48.1498C67.7256 48.1032 67.8208 48.0358 67.8998 47.9516C67.9789 47.8674 68.0401 47.7682 68.08 47.6598C68.2133 47.2779 68.271 46.8737 68.25 46.4698V38.4698C68.2446 37.8422 68.2713 37.2147 68.33 36.5898L66.75 36.6498V35.0498H77.29L77.41 39.0998H76C76.064 38.7447 76.0435 38.3795 75.9403 38.0338C75.837 37.688 75.6539 37.3714 75.4057 37.1096C75.1574 36.8477 74.8511 36.6479 74.5113 36.5264C74.1716 36.4048 73.808 36.3649 73.45 36.4098H72.7C72.4244 36.4147 72.1512 36.4619 71.89 36.5498C71.7832 36.5982 71.6879 36.6687 71.6104 36.7566C71.5328 36.8445 71.4747 36.9478 71.44 37.0598C71.3188 37.4375 71.2647 37.8335 71.28 38.2298V41.3598H73.75C73.75 41.1198 73.75 40.5198 73.66 39.5398H75.29V44.6198H73.92C73.9503 44.1892 73.8566 43.7589 73.65 43.3798C73.4938 43.1319 73.2517 42.9503 72.97 42.8698C72.6028 42.7873 72.2257 42.757 71.85 42.7798H71.3V46.1998C71.3099 46.8142 71.2831 47.4286 71.22 48.0398H74C74.3362 48.0484 74.6707 47.989 74.9834 47.8653C75.2961 47.7416 75.5807 47.5561 75.82 47.3198C76.0965 47.0107 76.3059 46.6476 76.435 46.2534C76.5641 45.8593 76.6101 45.4426 76.57 45.0298H78L77.9 49.6298H66.75V48.2898Z" fill="#2B2D42"/>
<path d="M86.2202 48.2902C86.5123 48.2872 86.8023 48.24 87.0802 48.1502C87.1868 48.1051 87.2828 48.0382 87.362 47.9538C87.4412 47.8694 87.5019 47.7694 87.5402 47.6602C87.6735 47.2783 87.7312 46.8741 87.7102 46.4702V38.4702C87.7023 37.8423 87.7323 37.2144 87.8002 36.5902L86.2202 36.6502V35.0502H92.2202C93.7689 34.9481 95.3141 35.2953 96.6702 36.0502C97.2005 36.4169 97.6247 36.9168 97.9004 37.4997C98.176 38.0825 98.2932 38.7276 98.2402 39.3702C98.2507 40.3098 97.9162 41.2206 97.3002 41.9302C96.5635 42.7438 95.5978 43.3155 94.5302 43.5702C94.8201 43.6893 95.0848 43.8624 95.3102 44.0802C95.5691 44.3177 95.7975 44.5864 95.9902 44.8802L96.9902 46.3502C97.3206 46.9054 97.7205 47.4162 98.1802 47.8702C98.5047 48.1527 98.92 48.3089 99.3502 48.3102V49.6902H95.8402C95.5663 49.4867 95.3237 49.2441 95.1202 48.9702C94.8902 48.6502 94.6102 48.2402 94.3002 47.7202L92.7402 45.2202C92.4868 44.7861 92.1921 44.3776 91.8602 44.0002H90.7602V46.2302C90.7711 46.8645 90.7444 47.499 90.6802 48.1302C91.1302 48.1302 91.6802 48.0702 92.4702 48.0702V49.6802H86.2202V48.2902ZM94.2202 41.7202C94.5029 41.3939 94.7175 41.0143 94.8515 40.6039C94.9854 40.1935 95.036 39.7604 95.0002 39.3302C95.0715 38.9015 95.0306 38.4616 94.8817 38.0534C94.7328 37.6451 94.4808 37.2823 94.1502 37.0002C93.5536 36.6186 92.8583 36.4205 92.1502 36.4302C91.7628 36.3976 91.3773 36.5118 91.0702 36.7502C90.7933 37.1348 90.6719 37.6098 90.7302 38.0802V42.4002C91.0612 42.4519 91.3953 42.482 91.7302 42.4902C92.1835 42.5376 92.6418 42.4938 93.078 42.3616C93.5141 42.2294 93.9195 42.0113 94.2702 41.7202H94.2202Z" fill="#2B2D42"/>
<path d="M110.55 49.7301C109.92 49.5585 109.315 49.3065 108.75 48.9801V48.9801L108.81 49.8501H107.19V45.0001H108.58C108.694 46.0048 109.166 46.9348 109.91 47.6201C110.626 48.2284 111.541 48.5523 112.48 48.5301C113.133 48.5563 113.774 48.3509 114.29 47.9501C114.51 47.7935 114.691 47.5867 114.816 47.3468C114.941 47.1069 115.008 46.8407 115.01 46.5701C115.013 46.3557 114.972 46.143 114.89 45.9451C114.807 45.7472 114.685 45.5685 114.53 45.4201C114.228 45.1092 113.872 44.8552 113.48 44.6701C113.09 44.4801 112.48 44.2301 111.64 43.8901C110.335 43.4278 109.131 42.7219 108.09 41.8101C107.679 41.4142 107.356 40.9362 107.143 40.4073C106.929 39.8783 106.829 39.3102 106.85 38.7401C106.858 38.0861 107.026 37.444 107.34 36.8701C107.705 36.2177 108.259 35.6912 108.93 35.3601C109.813 34.9192 110.794 34.7093 111.78 34.7501C112.422 34.7563 113.06 34.8437 113.68 35.0101C114.268 35.153 114.824 35.4039 115.32 35.7501L115.24 34.9001H116.88V39.7601H115.49C115.383 38.7811 114.958 37.8643 114.28 37.1501C113.961 36.8498 113.585 36.6156 113.175 36.4611C112.765 36.3066 112.328 36.2349 111.89 36.2501C111.305 36.2348 110.732 36.4142 110.26 36.7601C110.048 36.9023 109.875 37.0943 109.754 37.3192C109.634 37.5441 109.571 37.7951 109.57 38.0501C109.569 38.3502 109.639 38.6461 109.775 38.9138C109.91 39.1815 110.107 39.4132 110.35 39.5901C111.168 40.1572 112.06 40.6112 113 40.9401C114.248 41.402 115.419 42.0529 116.47 42.8701C116.904 43.2178 117.251 43.6617 117.483 44.1669C117.716 44.672 117.828 45.2243 117.81 45.7801C117.819 46.5666 117.582 47.3362 117.13 47.9801C116.649 48.6413 115.995 49.1569 115.24 49.4701C114.342 49.8371 113.379 50.0174 112.41 50.0001C111.78 49.9949 111.155 49.904 110.55 49.7301V49.7301Z" fill="#2B2D42"/>
<path d="M0 20.1602C0.166083 20.1642 0.33167 20.1405 0.49 20.0902C0.609676 20.0341 0.702892 19.9337 0.75 19.8102C0.820896 19.5943 0.851406 19.3672 0.84 19.1402V14.6202C0.837412 14.2662 0.854103 13.9124 0.89 13.5602L0 13.6002V12.6902H3.38C4.25307 12.6322 5.12439 12.8266 5.89 13.2502C6.1903 13.4579 6.43065 13.741 6.58688 14.071C6.7431 14.401 6.80971 14.7663 6.78 15.1302C6.78277 15.6584 6.59455 16.1698 6.25 16.5702C5.8353 17.03 5.29166 17.3541 4.69 17.5002V17.5002C4.85454 17.5666 5.00414 17.6652 5.13 17.7902C5.27757 17.9212 5.40554 18.0728 5.51 18.2402L6.07 19.0602C6.25025 19.378 6.47597 19.6677 6.74 19.9202C6.9223 20.081 7.15693 20.1699 7.4 20.1702V20.9502H5.4C5.24769 20.8334 5.11297 20.6954 5 20.5402C4.83306 20.3161 4.67946 20.0824 4.54 19.8402L3.66 18.4302C3.51146 18.1876 3.34429 17.9569 3.16 17.7402H2.57V19.0002C2.5891 19.3566 2.5891 19.7138 2.57 20.0702C2.90308 20.052 3.23692 20.052 3.57 20.0702V20.9802H0V20.1602ZM4.55 16.4602C4.71088 16.2763 4.83353 16.0623 4.91079 15.8305C4.98805 15.5987 5.01838 15.3538 5 15.1102C5.03438 14.8689 5.00648 14.6227 4.91897 14.3952C4.83146 14.1677 4.68724 13.9663 4.5 13.8102C4.16764 13.6009 3.78279 13.4899 3.39 13.4902C3.17124 13.4711 2.95333 13.5354 2.78 13.6702C2.7001 13.7763 2.64215 13.8973 2.60953 14.0261C2.57691 14.1549 2.57027 14.2888 2.59 14.4202V16.8402C2.77891 16.8676 2.96921 16.8843 3.16 16.8902C3.66089 16.9265 4.15709 16.773 4.55 16.4602V16.4602Z" fill="#2B2D42"/>
<path d="M11.9001 20.8602C11.7348 20.6847 11.645 20.4513 11.6501 20.2102C11.6486 20.0892 11.6717 19.9691 11.7181 19.8574C11.7645 19.7456 11.8333 19.6445 11.9201 19.5602C11.9953 19.4752 12.0876 19.4072 12.1911 19.3607C12.2945 19.3141 12.4067 19.2901 12.5201 19.2902C12.6368 19.2879 12.7526 19.3108 12.8596 19.3574C12.9666 19.404 13.0623 19.4732 13.1401 19.5602C13.295 19.7413 13.3802 19.9718 13.3802 20.2102C13.3802 20.4486 13.295 20.6791 13.1401 20.8602C13.0636 20.9488 12.9682 21.0191 12.8609 21.0659C12.7536 21.1126 12.6371 21.1346 12.5201 21.1302C12.4036 21.1312 12.2882 21.1077 12.1814 21.0612C12.0745 21.0147 11.9787 20.9462 11.9001 20.8602V20.8602Z" fill="#2B2D42"/>
<path d="M20.72 17.1799C20.6 16.9099 20.46 16.5199 20.29 16.0299C20.12 15.5399 20 15.0299 19.88 14.5199C19.88 15.2299 19.88 15.8799 19.88 16.4699V18.9999C19.8882 19.3543 19.8682 19.7087 19.82 20.0599C20.1198 20.043 20.4202 20.043 20.72 20.0599V20.9699H18V20.1899C18.1661 20.1939 18.3317 20.1702 18.49 20.1199C18.6073 20.0607 18.6996 19.9613 18.75 19.8399C18.8209 19.624 18.8514 19.3969 18.84 19.1699L18.91 14.6499C18.91 14.0799 18.91 13.7299 18.91 13.5899H18.02V12.6799H20.65L22.44 17.2399L22.83 18.2399C22.96 18.6099 23.05 18.8999 23.11 19.0899C23.11 19.0199 23.23 18.7699 23.37 18.3599C23.51 17.9499 23.58 17.7699 23.67 17.5399L25.51 12.6699H28.26V13.4499C28.091 13.452 27.923 13.4756 27.76 13.5199C27.6986 13.5462 27.643 13.5845 27.5967 13.6326C27.5503 13.6807 27.514 13.7376 27.49 13.7999C27.4183 14.0155 27.3911 14.2435 27.41 14.4699L27.67 18.9999C27.7118 19.352 27.7118 19.7078 27.67 20.0599C27.9698 20.043 28.2702 20.043 28.57 20.0599V20.9699H25.22V20.1899C25.3894 20.1937 25.5582 20.1701 25.72 20.1199C25.84 20.0611 25.9356 19.962 25.99 19.8399C26.0617 19.6243 26.0889 19.3964 26.07 19.1699L25.97 16.6699V16.2199C25.97 15.4599 25.91 14.9299 25.9 14.6299L23.46 21.0899H22.32L20.72 17.1799Z" fill="#2B2D42"/>
<path d="M38.8499 0H37.3999V26.61H38.8499V0Z" fill="#2B2D42"/>
</svg>
