<svg width="125" height="50" viewBox="0 0 125 50" fill="none" xmlns="http://www.w3.org/2000/svg">
<path d="M0 17.2701L1.46 14.0601C3.26452 15.3028 5.39906 15.9784 7.59 16.0001C10.14 16.0001 11.18 15.1601 11.18 14.0001C11.18 10.5501 0.37 12.9201 0.37 6.0701C0.37 2.9301 2.92 0.320096 8.2 0.320096C10.4653 0.288184 12.6972 0.868617 14.66 2.0001L13.33 5.2001C11.7668 4.28144 9.99287 3.78198 8.18 3.7501C5.63 3.7501 4.65 4.7501 4.65 5.8601C4.65 9.2601 15.45 6.8601 15.45 13.6901C15.45 16.7701 12.88 19.4101 7.57 19.4101C4.88853 19.477 2.24956 18.731 0 17.2701H0Z" fill="#2B2D42"/>
<path d="M30 4.12014H24V0.640137H40.2V4.12014H34.2V19.1201H30V4.12014Z" fill="#2B2D42"/>
<path d="M61.7801 15.1401H53.1501L51.5101 19.0901H47.1001L55.3801 0.640137H59.6301L67.9401 19.0901H63.4301L61.7801 15.1401ZM60.4301 11.8901L57.4301 4.83014L54.4801 11.8901H60.4301Z" fill="#2B2D42"/>
<path d="M77.8501 0.640137H82.1501V15.6401H91.4701V19.1201H77.8501V0.640137Z" fill="#2B2D42"/>
<path d="M36.6699 31.23H40.9999V46.23H50.3199V49.71H36.6699V31.23Z" fill="#2B2D42"/>
<path d="M60.6699 31.23H64.9999V49.68H60.6999L60.6699 31.23Z" fill="#2B2D42"/>
<path d="M76.1699 40.4602C76.1699 34.9702 80.4699 30.9102 86.3399 30.9102C92.2099 30.9102 96.5099 34.9102 96.5099 40.4602C96.5099 46.0102 92.1799 50.0002 86.3399 50.0002C80.4999 50.0002 76.1699 45.9402 76.1699 40.4602ZM92.1699 40.4602C92.2024 39.6762 92.0761 38.8938 91.7985 38.16C91.521 37.4261 91.0979 36.756 90.5547 36.1898C90.0115 35.6236 89.3595 35.1731 88.6377 34.8654C87.916 34.5576 87.1395 34.399 86.3549 34.399C85.5703 34.399 84.7938 34.5576 84.0721 34.8654C83.3504 35.1731 82.6983 35.6236 82.1552 36.1898C81.612 36.756 81.1889 37.4261 80.9113 38.16C80.6337 38.8938 80.5074 39.6762 80.5399 40.4602C80.5074 41.2441 80.6337 42.0265 80.9113 42.7603C81.1889 43.4942 81.612 44.1644 82.1552 44.7305C82.6983 45.2967 83.3504 45.7472 84.0721 46.055C84.7938 46.3627 85.5703 46.5214 86.3549 46.5214C87.1395 46.5214 87.916 46.3627 88.6377 46.055C89.3595 45.7472 90.0115 45.2967 90.5547 44.7305C91.0979 44.1644 91.521 43.4942 91.7985 42.7603C92.0761 42.0265 92.2024 41.2441 92.1699 40.4602Z" fill="#2B2D42"/>
<path d="M124.76 31.23V49.68H121.23L112 38.48V49.68H107.75V31.23H111.31L120.55 42.43V31.23H124.76Z" fill="#2B2D42"/>
<path d="M103.39 0V4.06H118.52V18.91H122.38V0H103.39Z" fill="#2B2D42"/>
<path d="M4.02992 45.58V30.73H0.169922V49.64H19.1599V45.58H4.02992Z" fill="#2B2D42"/>
</svg>
